<svg role="img" title="back to top" xmlns="http://www.w3.org/2000/svg" width="45" height="45" viewBox="0 0 45 45">
  <path fill="#ccc" fill-rule="evenodd" d="M2.81 0A2.81 2.81 0 0 0 0 2.81v39.38A2.81 2.81 0 0 0 2.81 45h39.38A2.81 2.81 0 0 0 45 42.19V2.81A2.81 2.81 0 0 0 42.19 0H2.81z"/>
  <path fill="#404640" d="M33.95 19.404l-9.167-9.108c-.705-.728-1.86-.728-2.566 0l-9.167 9.108c-.733.7-.733 1.848 0 2.55.706.73 1.86.73 2.567 0l6.05-5.975v17.45c0 1 .825 1.82 1.833 1.82s1.833-.82 1.833-1.82V15.97l6.05 5.993c.35.364.825.546 1.284.546.458 0 .935-.186 1.283-.55.733-.7.733-1.85 0-2.55z"/>
</svg>
