<svg role="icon" title="GitHub" class="icon icon-github-logo" viewBox="0 0 16 16" width="16" height="16" aria-hidden="true">
  <path d="M8,0.2A8,8,0,0,0,5.47,15.79,0.4,0.4,0,0,0,6,15.4c0-.19,0-0.69,0-1.36C3.78,14.53,3.31,13,3.31,13a2.12,2.12,0,0,0-.89-1.17c-0.73-.5.05-0.49,0.05-0.49a1.68,1.68,0,0,1,1.23.82A1.7,1.7,0,0,0,6,12.8a1.71,1.71,0,0,1,.51-1.07c-1.78-.2-3.64-0.89-3.64-4a3.09,3.09,0,0,1,.82-2.15A2.88,2.88,0,0,1,3.8,3.52S4.47,3.3,6,4.34a7.58,7.58,0,0,1,4,0c1.53-1,2.2-.82,2.2-0.82a2.87,2.87,0,0,1,.08,2.12,3.09,3.09,0,0,1,.82,2.15c0,3.07-1.87,3.75-3.65,3.95A1.91,1.91,0,0,1,10,13.21c0,1.07,0,1.93,0,2.19a0.4,0.4,0,0,0,.55.38A8,8,0,0,0,8,.2Z"></path>
</svg>
