<svg role="icon" title="Gnu Privacy Guard (GPG)" class="icon icon-gnupg-logo" viewBox="0 0 16 16" width="16" height="16" aria-hidden="true">
  <path d="M14 8.698V16H3.735c1.132-.63 1.975-.567 3.372-.523 1.902.06 4.004-.74 5.037-1.798 1.034-1.06-.093-.25-1.264.04-1.17.29-3.435.33-4.948-.07 4.767.06 6.623-1.49 7.677-2.87 1.05-1.39-.46-.24-1.44.24s-2.69.82-4.56.57c2.84-.01 5-1.43 6.38-2.9zm-3.664-7.446C9.676.855 8.902.627 8.076.627c-2.263 0-4.13 1.712-4.383 3.916C4.356 2.46 6.303.95 8.598.95c.61 0 1.195.106 1.738.302zm2.088 6.872c-.016.01-.033.017-.05.025M5.22 7.72h5.562V5.174c0-1.54-1.245-2.79-2.78-2.79-1.536 0-2.782 1.25-2.782 2.79v2.548zm-3.218 0h.844V5.174C2.846 2.317 5.154 0 8 0c2.848 0 5.156 2.317 5.156 5.174v2.523l-.036.025-.008.005h-.002v.002h-.02l-.005.002-.004.003-.01.005-.01.006v.005h-.004l-.007.008h-.004v.003h-.01l-.004.007-.02.01H13v.01h-.003v.01l-.017.01h-.004l-.01.005-.01.007h-.002l-.01.002-.006.003-.004.006h-.004l-.01.006h-.01l-.01.002-.01.004-.016.01-.01.003-.01.003v.004l-.025.014-.01.006-.01.008-.01.01-.02.007-.02.01-.01.005-.04.02-.01.005-.015.008-.014.01-.03.016-.016.006-.044.024-.002.005-.006.007-.02.01-.01.006-.02.01-.015.003-.02.01-.01.01-.01.007-.04.02-.01.006-.05.027-.05.022-.02.01-.053.026c-1.02.49-2.666 1.01-5.78 1.236-2.23.17-3.59 1.158-4.47 2.348V7.72z"/>
</svg>
