<svg role="img" title="Impressum" xmlns="http://www.w3.org/2000/svg" viewBox="0 0 32 32">
  <path d="M32 16a16 16 0 0 1-16 16A16 16 0 0 1 0 16 16 16 0 0 1 16 0a16 16 0 0 1 16 16zM16.046 9.424c.78-.023 1.4-.64 1.424-1.416.023-.845-.665-1.53-1.515-1.507-.78.023-1.4.64-1.424 1.417-.022.844.666 1.53 1.516 1.507zM26.7 18.192h-.414l-2.916-5.617c.413-.046.826-.206 1.194-.366.55-.252.665-.983.252-1.417l-.023-.022c-.252-.25-.642-.342-.987-.182-.322.137-.78.297-1.217.297-1.286 0-1.86-1.462-6.59-1.462-4.73 0-5.304 1.462-6.59 1.462-.458 0-.895-.138-1.216-.297-.344-.137-.735-.07-.987.183l-.023.023c-.414.434-.298 1.142.253 1.416.367.182.78.32 1.193.365l-2.915 5.617H5.3c-.183 0-.32.16-.297.343.252 1.46 2.112 2.58 4.385 2.58 2.273 0 4.133-1.12 4.385-2.58.023-.183-.114-.343-.298-.343h-.414l-2.915-5.594c1.906-.16 2.916-1.12 4.386-1.12v11.1c-.803 0-1.47.66-1.47 1.46h-1.63c-.642 0-1.307.663-1.307 1.462h11.755c0-.8-.666-1.46-1.63-1.46h-1.31c0-.8-.665-1.463-1.47-1.463V11.48c1.47 0 2.48.96 4.387 1.118l-2.916 5.594h-.415c-.183 0-.322.16-.298.343.253 1.46 2.112 2.58 4.385 2.58 2.273 0 4.133-1.12 4.386-2.58.022-.183-.115-.343-.3-.343zm-15.108 0H7.184l2.204-4.11 2.204 4.11zm8.816 0l2.204-4.11 2.204 4.11h-4.408z"/>
</svg>
