<svg role="img" title="Datenschutz" xmlns="http://www.w3.org/2000/svg" viewBox="0 0 32 32">
  <path d="M32 16a16 16 0 0 1-16 16A16 16 0 0 1 0 16 16 16 0 0 1 16 0a16 16 0 0 1 16 16zM16 9c-4.125 0-8.938 2.727-11 8.182C7.063 21.272 11.188 24 16 24c4.813 0 8.938-2.727 11-6.818C24.937 11.727 20.125 9 16 9zm0 13.636c-4.125 0-7.563-2.727-8.25-5.454.688-2.727 4.125-5.455 8.25-5.455s7.563 2.728 8.25 5.455c-.688 2.727-4.125 5.454-8.25 5.454zm0-9.545c-.43 0-.817.087-1.203.194.71.32 1.203 1.022 1.203 1.853 0 1.13-.924 2.046-2.063 2.046-.838 0-1.546-.49-1.87-1.193-.106.382-.192.766-.192 1.192 0 2.26 1.848 4.09 4.125 4.09s4.125-1.832 4.125-4.09-1.848-4.09-4.125-4.09z"/>
</svg>
