<svg role="img" class="icon icon-twitter-logo" viewBox="0 0 16 16" width="16" height="16" aria-hidden="true">
  <path d="M16,3a6.56,6.56,0,0,1-1.89.52,3.29,3.29,0,0,0,1.44-1.82,6.57,6.57,0,0,1-2.08.8,3.3,3.3,0,0,0-5.59,3A9.32,9.32,0,0,1,1.11,2.1a3.32,3.32,0,0,0,1,4.38A3.27,3.27,0,0,1,.64,6.07,3.32,3.32,0,0,0,3.28,9.33a3.32,3.32,0,0,1-1.48.06,3.29,3.29,0,0,0,3.07,2.28A6.66,6.66,0,0,1,0,13a9.48,9.48,0,0,0,10.71-.39,9.61,9.61,0,0,0,3.65-7.9A6.67,6.67,0,0,0,16,3C15.41,3.3,15.56,3.7,16,3Z"></path>
</svg>
