<svg role="img" title="Github-Logo" xmlns="http://www.w3.org/2000/svg" class="team-icon team-icon--github" width="25" height="24" viewBox="0 0 33.333334 32">
  <path d="M16.667 0C7.464 0 0 7.342 0 16.398c0 7.246 4.774 13.393 11.399 15.56.833.15 1.138-.355 1.138-.789 0-.39-.012-1.682-.024-3.052-4.63.995-5.607-1.931-5.607-1.931-.755-1.896-1.848-2.393-1.848-2.393-1.512-1.02.117-.996.117-.996 1.674.113 2.556 1.689 2.556 1.689 1.488 2.507 3.905 1.782 4.852 1.362.15-1.058.584-1.783 1.056-2.192-3.699-.414-7.591-1.82-7.591-8.104 0-1.793.65-3.252 1.714-4.402-.17-.414-.745-2.085.167-4.342 0 0 1.395-.438 4.583 1.682a15.945 15.945 0 0 1 4.167-.55 16.17 16.17 0 0 1 4.175.553c3.178-2.125 4.578-1.683 4.578-1.683.912 2.26.34 3.926.167 4.342 1.071 1.149 1.714 2.612 1.714 4.404 0 6.3-3.898 7.69-7.61 8.092.597.51 1.13 1.508 1.13 3.037 0 2.192-.023 3.957-.023 4.502 0 .435.3.944 1.145.782 6.607-2.182 11.378-8.327 11.378-15.57C33.333 7.341 25.871 0 16.667 0z"/>
</svg>
