<svg role="img" title="LinkedIn-Logo" xmlns="http://www.w3.org/2000/svg" class="team-icon team-icon--linkedin" width="25.5" height="24" viewBox="0 0 34 32">
  <path d="M12.143 9.846h6.72v3.492h.098c.935-1.699 3.223-3.492 6.634-3.492 7.094 0 8.405 4.476 8.405 10.298V32h-7.006V21.49c0-2.508-.049-5.732-3.643-5.732-3.65 0-4.205 2.73-4.205 5.55V32h-7.003V9.846zM0 9.846h7.286V32H0V9.846zm7.286-6.154c0 2.04-1.631 3.693-3.643 3.693C1.63 7.385 0 5.732 0 3.692S1.63 0 3.643 0c2.012 0 3.643 1.653 3.643 3.692z"/>
</svg>
