<svg role="img" title="Stack-Overflow-Logo" xmlns="http://www.w3.org/2000/svg" class="team-icon team-icon--stackoverflow" width="19.5" height="24" viewBox="0 0 26 32">
  <path d="M0 25.398V32h21.606V18.754l-1.123.12-1.163.12-.125 5.483-.125 5.522H2.078V18.792H0v6.602zm3.74 1v1.2h13.296v-2.4H3.74v1.2zm.201-4.727l-.136 1.193 13.217 1.387.272-2.386-13.217-1.387-.138 1.194zm.993-5.646l-.325 1.157 12.842 3.32.646-2.317-12.84-3.321-.323 1.16zm2.727-6.583l-.665 1.015 11.255 6.818 1.327-2.032L8.324 8.424l-.662 1.017zm6.366-6.132l-1.028.68 7.54 10.55 2.051-1.364-7.54-10.549-1.028.68zM22.335.22l-1.229.221L23.55 13.03l2.451-.44L23.562 0l-1.226.22z"/>
</svg>
