<svg role="img" title="Twitter-Logo" xmlns="http://www.w3.org/2000/svg" class="team-icon team-icon--twitter" width="28.5" height="24" viewBox="0 0 38 32">
  <path d="M37.988 3.786a14.96 14.96 0 0 1-4.475 1.269A8.086 8.086 0 0 0 36.94.585a15.33 15.33 0 0 1-4.95 1.962C30.565.977 28.542 0 26.303 0c-4.303 0-7.79 3.618-7.79 8.08 0 .63.067 1.246.203 1.837-6.479-.336-12.223-3.554-16.07-8.447a8.353 8.353 0 0 0-1.051 4.064c0 2.801 1.37 5.277 3.468 6.726a7.667 7.667 0 0 1-3.533-1.016v.097c0 3.915 2.687 7.186 6.257 7.923a7.578 7.578 0 0 1-2.055.283 7.92 7.92 0 0 1-1.466-.146c.995 3.208 3.875 5.547 7.28 5.617-2.673 2.17-6.026 3.465-9.684 3.465-.63 0-1.249-.042-1.862-.115C3.458 30.67 7.555 32 11.958 32c14.335 0 22.18-12.317 22.18-22.998 0-.354-.009-.7-.024-1.044A15.998 15.998 0 0 0 38 3.783z"/>
</svg>
