<svg role="img" title="Xing-Logo" xmlns="http://www.w3.org/2000/svg" class="team-icon team-icon--xing" width="20.5" height="24" viewBox="0 0 27.333334 32">
  <path d="M21.948.002c-.69 0-.991.431-1.242.88 0 0-9.981 17.628-10.307 18.209l6.58 12.029c.23.403.583.88 1.292.88h4.63c.276 0 .495-.107.615-.295.125-.2.12-.457-.011-.712l-6.523-11.89c-.008-.012-.008-.02 0-.031L27.236 1.006c.125-.255.13-.511.011-.712C27.13.106 26.91 0 26.632 0h-4.684zM2.488 6.32c-.276 0-.515.1-.634.286-.12.201-.1.45.026.706l3.132 5.4c.004.01.004.019 0 .024l-4.92 8.661c-.126.256-.119.512 0 .706a.69.69 0 0 0 .603.31h4.63c.69 0 1.028-.468 1.26-.893 0 0 4.814-8.478 5-8.812L8.4 7.18c-.232-.406-.577-.862-1.292-.862h-4.62z"/>
</svg>
