<?xml version="1.0" encoding="UTF-8" standalone="no"?>
<svg
   xmlns:dc="http://purl.org/dc/elements/1.1/"
   xmlns:cc="http://creativecommons.org/ns#"
   xmlns:rdf="http://www.w3.org/1999/02/22-rdf-syntax-ns#"
   xmlns:svg="http://www.w3.org/2000/svg"
   xmlns="http://www.w3.org/2000/svg"
   xmlns:sodipodi="http://sodipodi.sourceforge.net/DTD/sodipodi-0.dtd"
   xmlns:inkscape="http://www.inkscape.org/namespaces/inkscape"
   version="1.1"
   id="Layer_1"
   x="0px"
   y="0px"
   viewBox="0 0 100 100"
   xml:space="preserve"
   inkscape:version="0.91 r13725"
   sodipodi:docname="drupal.svg"
   width="100"
   height="100"><metadata
     id="metadata13"><rdf:RDF><cc:Work
         rdf:about=""><dc:format>image/svg+xml</dc:format><dc:type
           rdf:resource="http://purl.org/dc/dcmitype/StillImage" /><dc:title></dc:title></cc:Work></rdf:RDF></metadata><defs
     id="defs11" /><sodipodi:namedview
     pagecolor="#ffffff"
     bordercolor="#666666"
     borderopacity="1"
     objecttolerance="10"
     gridtolerance="10"
     guidetolerance="10"
     inkscape:pageopacity="0"
     inkscape:pageshadow="2"
     inkscape:window-width="971"
     inkscape:window-height="695"
     id="namedview9"
     showgrid="false"
     inkscape:zoom="0.10925926"
     inkscape:cx="1080"
     inkscape:cy="1080"
     inkscape:window-x="1920"
     inkscape:window-y="34"
     inkscape:window-maximized="0"
     inkscape:current-layer="Layer_1" /><style
     type="text/css"
     id="style3">
	.st0{fill:none;}
	.st1{fill:#2AA9E0;}
</style><rect
     class="st0"
     width="2160"
     height="2160"
     id="rect5"
     x="0"
     y="-2060"
     style="fill:none" /><path
     class="st1"
     d="M 85.31711,14.6829 C 75.87536,5.2356 63.33407,0 50,0 22.45651,0 0,22.4565 0,50 0,77.5435 22.45651,100 50,100 77.54349,100 100,77.5435 100,50 100,36.6659 94.76437,24.1246 85.31711,14.6829 Z M 50,82.4598 c -15.07928,0 -27.37833,-12.299 -27.37833,-27.3783 0,-12.778 8.5719,-21.3444 16.10879,-28.8868 C 43.72935,21.1958 48.5741,16.351 50,10.9612 c 1.4314,5.3953 6.18806,10.2346 11.26954,15.2335 7.5424,7.5424 16.10879,16.1088 16.10879,28.8868 0,15.0738 -12.29905,27.3783 -27.37833,27.3783 z"
     id="path7"
     inkscape:connector-curvature="0"
     style="fill:#2aa9e0" /></svg>