<?xml version="1.0" encoding="UTF-8" standalone="no"?>
<!-- Generator: Adobe Illustrator 15.1.0, SVG Export Plug-In . SVG Version: 6.00 Build 0)  -->

<svg
   xmlns:dc="http://purl.org/dc/elements/1.1/"
   xmlns:cc="http://creativecommons.org/ns#"
   xmlns:rdf="http://www.w3.org/1999/02/22-rdf-syntax-ns#"
   xmlns:svg="http://www.w3.org/2000/svg"
   xmlns="http://www.w3.org/2000/svg"
   xmlns:sodipodi="http://sodipodi.sourceforge.net/DTD/sodipodi-0.dtd"
   xmlns:inkscape="http://www.inkscape.org/namespaces/inkscape"
   version="1.0"
   x="0px"
   y="0px"
   width="100"
   height="100"
   viewBox="0 0 100 99.999998"
   enable-background="new 0 0 540 122.523"
   xml:space="preserve"
   id="svg2"
   inkscape:version="0.91 r13725"
   sodipodi:docname="WordPress_logo.svg"><metadata
     id="metadata38"><rdf:RDF><cc:Work
         rdf:about=""><dc:format>image/svg+xml</dc:format><dc:type
           rdf:resource="http://purl.org/dc/dcmitype/StillImage" /><dc:title></dc:title></cc:Work></rdf:RDF></metadata><defs
     id="defs36" /><sodipodi:namedview
     pagecolor="#ffffff"
     bordercolor="#666666"
     borderopacity="1"
     objecttolerance="10"
     gridtolerance="10"
     guidetolerance="10"
     inkscape:pageopacity="0"
     inkscape:pageshadow="2"
     inkscape:window-width="887"
     inkscape:window-height="480"
     id="namedview34"
     showgrid="false"
     inkscape:zoom="1.1925926"
     inkscape:cx="58.000282"
     inkscape:cy="16.299047"
     inkscape:window-x="580"
     inkscape:window-y="1077"
     inkscape:window-maximized="0"
     inkscape:current-layer="svg2" /><path
     id="path32"
     style="fill:#464342"
     d="m 49.160267,0.83850738 c -27.568618,0 -49.99877612,22.42925662 -49.99877612,49.99877162 0,27.572788 22.43015812,50.001231 49.99877612,50.001231 27.5678,0 50.001224,-22.428443 50.001224,-50.001231 C 99.160675,23.267764 76.728067,0.83850738 49.160267,0.83850738 Z m 0,97.70818962 c -26.304406,0 -47.7062202,-21.402521 -47.7062202,-47.709418 0,-26.305263 21.4009972,-47.7061406 47.7062202,-47.7061406 26.303589,0 47.703771,21.4008776 47.703771,47.7061406 0,26.306897 -21.400182,47.709418 -47.703771,47.709418 z M 86.796053,30.258288 c 0.184449,1.366275 0.288916,2.832938 0.288916,4.410601 0,4.352649 -0.812882,9.245608 -3.261322,15.363643 l -13.1016,37.881055 C 83.47352,80.477437 92.050405,66.662062 92.050405,50.838095 92.051221,43.38072 90.146335,36.368159 86.796053,30.258288 Z m -36.883299,24.330939 -12.869,37.39625 c 3.842418,1.12958 7.906013,1.74743 12.116513,1.74743 4.994818,0 9.784784,-0.86352 14.243393,-2.43138 -0.115077,-0.18365 -0.219543,-0.37871 -0.305239,-0.59091 L 49.912754,54.589227 Z m 28.202762,-5.91644 c 0,-5.301046 -1.90407,-8.972193 -3.537179,-11.829616 -2.174212,-3.53321 -4.21213,-6.525302 -4.21213,-10.058516 0,-3.942933 2.990358,-7.613265 7.202491,-7.613265 0.190162,0 0.370531,0.02367 0.555796,0.03428 C 70.493526,12.214329 60.326787,7.9457444 49.160267,7.9457444 c -14.984452,0 -28.167669,7.6883516 -35.836999,19.3335116 1.006308,0.0302 1.954671,0.05142 2.760208,0.05142 4.486358,0 11.43095,-0.544388 11.43095,-0.544388 2.312143,-0.136301 2.584736,3.259796 0.275041,3.533214 0,0 -2.323569,0.273418 -4.909122,0.408904 L 38.49976,77.189066 47.886262,49.0368 41.203653,30.726772 c -2.309695,-0.135485 -4.497784,-0.408903 -4.497784,-0.408903 -2.311327,-0.135484 -2.040366,-3.669515 0.270961,-3.533214 0,0 7.083337,0.544388 11.297918,0.544388 4.485542,0 11.430952,-0.544388 11.430952,-0.544388 2.313775,-0.136301 2.585552,3.259796 0.275041,3.533214 0,0 -2.328468,0.273418 -4.909124,0.408903 L 70.571876,76.835663 74.850114,62.538755 C 76.704399,56.605991 78.115516,52.34475 78.115516,48.672787 Z M 6.2684959,50.837279 c 0,16.978036 9.8663971,31.650388 24.1734481,38.603368 L 9.9819633,33.380967 C 7.6020796,38.715473 6.2684959,44.618854 6.2684959,50.837279 Z"
     inkscape:connector-curvature="0" /></svg>