<svg role="img" title="Umweltschutz" xmlns="http://www.w3.org/2000/svg" class="services_icon" viewBox="0 0 32 32">
  <path fill="#9ccc65" d="M31.81.286C31.658.106 31.434 0 31.2 0h-.817C22.32 0 15.95-.002 11.26 1.12 8.74 1.72 6.793 2.632 5.305 3.9c-1.606 1.37-2.7 3.163-3.35 5.486-.43 1.543-.63 4.328.22 7.1.313 1.023.802 1.99 1.455 2.877C1.682 22.41 0 26.425 0 31.2c0 .443.358.8.8.8.442 0 .8-.357.8-.8 0-7.367 4.364-12.832 6.966-15.432 1.867-1.867 3.977-3.443 6.105-4.556 1.98-1.037 3.873-1.608 5.33-1.608.44 0 .8-.358.8-.8 0-.442-.36-.8-.8-.8-1.735 0-3.834.62-6.07 1.792-2.27 1.19-4.516 2.862-6.495 4.843-.835.834-1.84 1.948-2.838 3.31-.387-.61-.688-1.255-.894-1.93-.8-2.61-.506-5.127-.207-6.2 2.287-8.2 10.978-8.22 26.745-8.216-1.88 10.06-5.385 16.572-10.425 19.36-4.675 2.588-9.31 1.177-11.09.45-.373-.155-.75-.344-1.117-.56-.38-.227-.87-.102-1.096.277-.226.38-.1.872.278 1.097.435.26.883.483 1.33.667.996.407 2.6.928 4.585 1.1.438.038.872.055 1.302.055 2.35 0 4.558-.565 6.584-1.685 2.574-1.424 4.8-3.742 6.622-6.886C29.352 11.79 30.958 6.9 31.99.94c.04-.232-.024-.47-.176-.65z"/>
</svg>
