<svg role="img" title="Performance" xmlns="http://www.w3.org/2000/svg" class="services_icon" viewBox="0 0 32 32">
  <path fill="#ffa726" d="M31.2.002c-4.15 0-7.85.704-10.998 2.092-2.593 1.146-4.814 2.752-6.6 4.777-.334.38-.643.76-.93 1.145-1.38.09-2.79.64-4.198 1.632-1.192.838-2.39 2-3.56 3.45-1.968 2.44-3.178 4.844-3.23 4.944-.173.352-.07.777.247 1.006.142.102.307.152.47.152.205 0 .41-.078.565-.232.008-.008.773-.76 2.077-1.497 1.075-.61 2.733-1.324 4.738-1.45.507 1.297 1.958 2.85 2.654 3.544.696.696 2.248 2.147 3.546 2.655-.126 2.003-.842 3.66-1.45 4.736-.74 1.305-1.49 2.068-1.496 2.075-.277.277-.312.716-.083 1.034.156.215.4.333.65.333.122 0 .244-.027.357-.085.1-.05 2.506-1.26 4.945-3.228 1.45-1.17 2.612-2.368 3.45-3.56.993-1.41 1.54-2.82 1.633-4.198.382-.285.765-.593 1.144-.928 2.025-1.787 3.63-4.007 4.777-6.6C31.297 8.65 32 4.95 32 .8V0h-.8zM4.973 15.692c1.524-2.212 3.856-4.955 6.483-5.818-1.038 1.82-1.576 3.49-1.77 4.55-1.854.112-3.453.65-4.713 1.27zm11.338 11.33c.617-1.26 1.156-2.856 1.268-4.71 1.058-.193 2.73-.73 4.548-1.767-.864 2.622-3.607 4.953-5.818 6.478zm7.76-9.822c-3.327 2.936-6.773 3.6-7.27 3.6-.002 0-.33-.007-1.214-.63-.616-.433-1.334-1.05-2.02-1.735-.684-.685-1.3-1.403-1.735-2.02-.62-.882-.628-1.21-.628-1.213 0-.496.664-3.942 3.6-7.27 3.514-3.98 8.892-6.158 15.59-6.32-.16 6.7-2.337 12.076-6.32 15.59zM.8 31.998c-.208 0-.413-.08-.566-.233-.22-.22-.293-.547-.186-.838C2.51 24.157 5.1 20.724 7.74 20.724c.873 0 1.688.375 2.425 1.11 1.165 1.165 1.207 2.325 1.037 3.093-.534 2.413-3.942 4.776-10.128 7.025C.984 31.984.89 32 .8 32zm6.943-9.675c-.792 0-1.725.694-2.696 2.007-.955 1.29-1.915 3.13-2.86 5.483 2.135-.86 3.852-1.73 5.117-2.6 1.708-1.172 2.213-2.08 2.337-2.633.124-.554-.075-1.083-.606-1.614-.432-.432-.854-.642-1.293-.642zM21.6 14.4c-2.204 0-4-1.795-4-4 0-2.204 1.796-4 4-4 2.206 0 4 1.796 4 4 0 2.205-1.794 4-4 4zm0-6.4c-1.322 0-2.4 1.077-2.4 2.4 0 1.324 1.078 2.4 2.4 2.4 1.324 0 2.4-1.076 2.4-2.4C24 9.078 22.925 8 21.6 8z"/>
</svg>
