<svg role="img" title="Innovation" xmlns="http://www.w3.org/2000/svg" class="services_icon" viewBox="0 0 32 32">
  <path fill="#29b6f6" stroke="#29b6f6" stroke-width=".355" d="M11.362 11.82l-.39.774c1.35.268 2.708 1.67 3.333 2.895.28.55.463 1.19.687 1.86.224.67.5 1.39 1 2.01.692.86 1.74 1.4 2.843 1.46l.06-1.07c-.79-.05-1.577-.45-2.073-1.07-.365-.456-.606-1.048-.818-1.68-.213-.64-.404-1.337-.75-2.01-.78-1.53-2.21-2.85-3.892-3.188zm2.36 18.69L1.5 18.196c-.568-.96-.27-2.167.657-2.69L16.41 11.17l6.08-6.085-1.062-1.072c-.196-.19-.036-.682.153-.87.2-.19.52-.18.7.02L28 8.913c.2.198.208.512.02.698-.187.2-.67.36-.866.16L26.08 8.69l-6.027 6.098-3.64 15.07c-.513.934-1.712 1.23-2.664.663zm3.53-.112l3.442-14.94.016-.02 5.355-5.4.394.394c.59.59 1.69.444 2.25-.124.55-.567.53-1.513-.06-2.102l-5.7-5.736c-.6-.6-1.53-.62-2.1-.055-.57.57-.717 1.67-.12 2.27l.34.347-5.378 5.38L1.6 14.658c-1.402.79-1.84 2.6-.985 4.04l12.62 12.69c1.433.856 3.233.412 4.018-.99z"/>
  <path fill="#29b6f6" d="M18.8 12.594c.594.592 1.525.616 2.087.05.564-.567.54-1.502-.05-2.096-.59-.59-1.52-.614-2.087-.05-.557.565-.536 1.504.053 2.098zm2.644-5.333c-.417.44-.406 1.15.043 1.6.45.44 1.156.47 1.585.03.428-.43.406-1.14-.032-1.6-.45-.45-1.157-.46-1.585-.03zm3.878-4.63c.62.62 1.594.65 2.184.06.588-.59.567-1.57-.053-2.19-.622-.62-1.596-.645-2.185-.054-.588.593-.567 1.573.054 2.194zm4.817-.42c.43.44 1.13.46 1.55.05.43-.42.4-1.12-.03-1.562-.44-.44-1.14-.46-1.56-.04-.42.423-.4 1.125.04 1.567zm-1.76 2.45c-.46.47-.45 1.24.04 1.73s1.26.51 1.72.04c.46-.47.44-1.24-.04-1.73s-1.26-.51-1.72-.04z"/>
</svg>
