<svg role="img" title="Zuverlässigkeit" xmlns="http://www.w3.org/2000/svg" class="services_icon" viewBox="0 0 32 32">
  <path fill="#ab47bc" d="M28.75 28H3.25a.75.75 0 0 1-.75-.75V11.5h27v15.75a.75.75 0 0 1-.75.75zM3.25 5.5H7v2.25a.75.75 0 0 0 1.5 0V5.5h15v2.25a.75.75 0 0 0 1.5 0V5.5h3.75a.75.75 0 0 1 .75.75V10h-27V6.25a.75.75 0 0 1 .75-.75zM28.75 4H25v-.75a.75.75 0 0 0-1.5 0V4h-15v-.75a.75.75 0 0 0-1.5 0V4H3.25C2.01 4 1 5.01 1 6.25v21c0 1.24 1.01 2.25 2.25 2.25h25.5c1.24 0 2.25-1.01 2.25-2.25v-21C31 5.01 29.99 4 28.75 4zm-16.5 12h-1.5a.75.75 0 0 1 0-1.5h1.5a.75.75 0 0 1 0 1.5zm4.5 0h-1.5a.75.75 0 0 1 0-1.5h1.5a.75.75 0 0 1 0 1.5zm4.5 0h-1.5a.75.75 0 0 1 0-1.5h1.5a.75.75 0 0 1 0 1.5zm4.5 0h-1.5a.75.75 0 0 1 0-1.5h1.5a.75.75 0 0 1 0 1.5zm-18 3h-1.5a.75.75 0 0 1 0-1.5h1.5a.75.75 0 0 1 0 1.5zm4.5 0h-1.5a.75.75 0 0 1 0-1.5h1.5a.75.75 0 0 1 0 1.5zm4.5 0h-1.5a.75.75 0 0 1 0-1.5h1.5a.75.75 0 0 1 0 1.5zm4.5 0h-1.5a.75.75 0 0 1 0-1.5h1.5a.75.75 0 0 1 0 1.5zm4.5 0h-1.5a.75.75 0 0 1 0-1.5h1.5a.75.75 0 0 1 0 1.5zm-18 3h-1.5a.75.75 0 0 1 0-1.5h1.5a.75.75 0 0 1 0 1.5zm4.5 0h-1.5a.75.75 0 0 1 0-1.5h1.5a.75.75 0 0 1 0 1.5zm4.5 0h-1.5a.75.75 0 0 1 0-1.5h1.5a.75.75 0 0 1 0 1.5zm4.5 0h-1.5a.75.75 0 0 1 0-1.5h1.5a.75.75 0 0 1 0 1.5zm4.5 0h-1.5a.75.75 0 0 1 0-1.5h1.5a.75.75 0 0 1 0 1.5zm-18 3h-1.5a.75.75 0 0 1 0-1.5h1.5a.75.75 0 0 1 0 1.5zm4.5 0h-1.5a.75.75 0 0 1 0-1.5h1.5a.75.75 0 0 1 0 1.5zm4.5 0h-1.5a.75.75 0 0 1 0-1.5h1.5a.75.75 0 0 1 0 1.5zm4.5 0h-1.5a.75.75 0 0 1 0-1.5h1.5a.75.75 0 0 1 0 1.5z"/>
</svg>
