<svg role="img" title="Sicherheit" xmlns="http://www.w3.org/2000/svg" class="services_icon" viewBox="0 0 32 32">
  <path fill="#ffd600" d="M5.17 13.067h21.66v17.155H5.17zm20.573-1.773h-.973V8.47C24.77 3.8 20.835 0 16 0c-4.835 0-8.77 3.8-8.77 8.47v2.824h-.973a2.923 2.83 0 0 0-2.924 2.823v15.06c0 1.557 1.31 2.823 2.924 2.823h19.486a2.923 2.83 0 0 0 2.924-2.823v-15.06c0-1.557-1.31-2.823-2.924-2.823zM9.18 8.47c0-3.633 3.06-6.587 6.82-6.587 3.76 0 6.82 2.954 6.82 6.587v2.827H9.18V8.47zM3.974 28.24h13.79v-1.883H4.93v-1.883h12.834V22.59H4.93v-1.886h12.832V18.82H4.93v-1.88h12.832v-1.885H3.975V28.24z"/>
</svg>
