<svg role="img" title="Vielseitigkeit" xmlns="http://www.w3.org/2000/svg" class="services_icon" viewBox="0 0 32 32">
  <path fill="#ef5350" d="M25.75 27.533a.704.704 0 0 1-.53-.254.962.962 0 0 1-.22-.615.94.94 0 0 1 .22-.612.716.716 0 0 1 .53-.255c.197 0 .392.09.53.254.14.16.22.385.22.612 0 .227-.08.452-.22.612a.713.713 0 0 1-.53.253zm3 3.467h-6c-1.24 0-2.25-1.167-2.25-2.6V14.533c0-1.433 1.01-2.6 2.25-2.6h6c1.24 0 2.25 1.167 2.25 2.6V28.4c0 1.433-1.01 2.6-2.25 2.6zm-6-17.333c-.414 0-.75.388-.75.866V28.4c0 .478.336.867.75.867h6c.414 0 .75-.39.75-.867V14.533c0-.478-.336-.866-.75-.866h-6zM18.25 31h-15C2.01 31 1 29.833 1 28.4v-1.733c0-.48.336-.867.75-.867h16.5c.414 0 .75.388.75.867 0 .478-.336.866-.75.866H2.5v.867c0 .478.336.867.75.867h15c.414 0 .75.388.75.866 0 .48-.336.867-.75.867zm0-6.933h-12c-1.24 0-2.25-1.167-2.25-2.6V7.6C4 6.167 5.01 5 6.25 5h19.5C26.99 5 28 6.167 28 7.6v1.733c0 .48-.336.867-.75.867s-.75-.388-.75-.867V7.6c0-.478-.336-.867-.75-.867H6.25c-.414 0-.75.39-.75.867v13.867c0 .478.336.866.75.866h12c.414 0 .75.39.75.867 0 .478-.336.867-.75.867z"/>
</svg>
