<?xml version="1.0" encoding="UTF-8" standalone="no"?>
<!-- Created with Inkscape (http://www.inkscape.org/) -->

<svg
   xmlns:dc="http://purl.org/dc/elements/1.1/"
   xmlns:cc="http://creativecommons.org/ns#"
   xmlns:rdf="http://www.w3.org/1999/02/22-rdf-syntax-ns#"
   xmlns:svg="http://www.w3.org/2000/svg"
   xmlns="http://www.w3.org/2000/svg"
   xmlns:sodipodi="http://sodipodi.sourceforge.net/DTD/sodipodi-0.dtd"
   xmlns:inkscape="http://www.inkscape.org/namespaces/inkscape"
   height="100"
   width="100"
   viewBox="0 0 100 100"
   id="svg3289"
   version="1.1"
   inkscape:version="0.91 r13725"
   sodipodi:docname="brain-only.svg">
  <defs
     id="defs3295" />
  <sodipodi:namedview
     pagecolor="#ffffff"
     bordercolor="#666666"
     borderopacity="1"
     objecttolerance="10"
     gridtolerance="10"
     guidetolerance="10"
     inkscape:pageopacity="0"
     inkscape:pageshadow="2"
     inkscape:window-width="981"
     inkscape:window-height="480"
     id="namedview3293"
     showgrid="false"
     units="px"
     inkscape:zoom="0.22425739"
     inkscape:cx="372.04724"
     inkscape:cy="526.1811"
     inkscape:window-x="65"
     inkscape:window-y="24"
     inkscape:window-maximized="0"
     inkscape:current-layer="svg3289" />
  <metadata
     id="metadata3291">
    <rdf:RDF>
      <cc:Work
         rdf:about="">
        <dc:format>image/svg+xml</dc:format>
        <dc:type
           rdf:resource="http://purl.org/dc/dcmitype/StillImage" />
        <dc:title></dc:title>
      </cc:Work>
    </rdf:RDF>
  </metadata>
  <g
     id="g3231"
     transform="matrix(1.8939394,0,0,1.8939394,-155.50741,-13.63636)">
    <circle
       r="26.4"
       cy="33.599998"
       cx="108.50791"
       id="path4187"
       style="fill:#5eb2b2;fill-opacity:0.94117647;fill-rule:evenodd;stroke:none;stroke-width:15.34957027;stroke-linecap:round;stroke-linejoin:miter;stroke-miterlimit:4;stroke-dasharray:none;stroke-opacity:1" />
    <path
       inkscape:connector-curvature="0"
       d="m 99.59472,36.313587 c 0.28556,-1.422891 1.01206,-2.390313 2.41392,-3.214389 0.89703,-0.52732 1.25493,-0.605589 1.52438,-0.333379 0.23659,0.238983 0.30475,0.71979 0.14044,0.990676 -0.0746,0.122839 -0.55393,0.510729 -1.06537,0.861981 -1.06603,0.732114 -1.27136,1.000596 -1.44068,1.883898 -0.19781,1.031824 -0.48221,1.267644 -1.20509,0.999193 -0.431888,-0.16039 -0.517984,-0.438642 -0.3676,-1.18798 z M 97.313688,23.757812 c -0.488848,-0.478364 -0.2612,-0.980575 0.627832,-1.385082 1.351784,-0.61504 2.4321,-1.541548 2.87486,-2.465512 0.48312,-1.008206 0.87022,-1.22856 1.41799,-0.807207 1.14249,0.87883 -1.35463,4.245315 -3.54953,4.785312 -0.738856,0.181775 -1.088304,0.149277 -1.371152,-0.127511 z m 0.432952,7.333534 c -0.126264,-0.07963 -0.35836,-0.364326 -0.515784,-0.632672 -0.470808,-0.80256 -0.856704,-1.030708 -2.186632,-1.292828 -0.379624,-0.07482 -0.54152,-0.167567 -0.6178,-0.353928 -0.154,-0.376233 -0.07672,-0.838428 0.175832,-1.05108 0.19328,-0.162756 0.340728,-0.16622 1.086568,-0.0255 1.396392,0.26344 2.404576,1.06525 2.996608,2.383159 0.149056,0.331837 0.153824,0.454043 0.02656,0.679974 -0.192912,0.342477 -0.661328,0.484595 -0.965352,0.292888 z m 3.70361,17.232917 c -0.31423,-0.163026 -0.49327,-0.407177 -0.50028,-0.682229 -0.01,-0.392653 -0.52097,-1.718144 -0.89489,-2.321404 -0.506128,-0.816559 -1.425992,-1.70176 -2.060368,-1.982742 -0.297224,-0.131641 -0.869664,-0.287933 -1.272104,-0.347318 -0.895784,-0.132179 -1.075056,-0.220365 -1.210344,-0.595367 -0.124112,-0.344077 -0.03808,-0.638474 0.268752,-0.920436 0.188352,-0.173036 0.327584,-0.194981 0.938056,-0.147804 2.050488,0.158449 3.866528,1.434435 4.969298,3.491532 0.75776,1.413509 1.06961,2.966443 0.66754,3.324242 -0.33917,0.301831 -0.58053,0.350211 -0.90566,0.181526 z m 4.32191,3.307491 c 0.32734,-0.0916 0.62898,-0.266075 0.80203,-0.463932 l 0.27737,-0.317121 0.034,-3.113052 c 0.0186,-1.712177 0.0218,-9.342063 0.006,-16.955295 l -0.0273,-13.842242 -0.25894,-0.508237 c -0.45841,-0.899776 -1.21911,-1.189716 -3.05256,-1.163501 -2.5192,0.03601 -4.063388,0.708999 -4.979228,2.170038 -0.376552,0.60071 -0.620056,0.760879 -1.47188,0.968203 -1.213288,0.295301 -2.601344,1.136837 -3.148016,1.908546 -1.101104,1.554421 -1.5734,3.045251 -1.290376,4.073161 0.08501,0.308628 0.12156,0.620765 0.08122,0.693645 -0.04024,0.07288 -0.308816,0.294063 -0.596792,0.491526 -0.650976,0.446397 -1.001592,1.116069 -1.357312,2.592496 -0.433568,1.799576 -0.298536,4.074332 0.33876,5.706888 0.5906,1.512961 2.39708,3.003169 3.624584,2.990031 0.429152,-0.0047 0.948712,0.197868 1.068768,0.416466 0.33676,0.613213 -0.08966,1.271418 -0.82408,1.272042 -1.03488,10e-4 -2.393256,-0.515856 -3.341152,-1.270997 -0.339576,-0.270521 -0.66236,-0.463404 -0.71732,-0.42863 -0.159168,0.100716 -0.600424,1.728069 -0.717776,2.647123 -0.24084,1.886237 0.431664,3.919766 1.742232,5.268226 0.552552,0.568517 1.687456,1.092093 2.72904,1.259005 0.646992,0.103673 0.759384,0.198004 1.408728,1.182302 1.521832,2.306828 4.01112,4.009658 6.52339,4.462403 0.97033,0.174862 2.44685,0.156514 3.14594,-0.03907 z"
       style="fill:#ffffff;fill-opacity:1"
       id="path4199" />
    <g
       transform="matrix(0.88,0,0,0.88,-10.559905,-6)"
       id="g3256">
      <g
         id="g4200"
         transform="matrix(0.16666667,0,0,0.16666667,104.05433,-17.299905)"
         style="fill:none;fill-opacity:1;stroke:#ffffff;stroke-opacity:1">
        <path
           inkscape:connector-curvature="0"
           id="path4243"
           d="m 280.65836,416.23749 0,-48.58019"
           style="fill:none;fill-opacity:1;fill-rule:evenodd;stroke:#ffffff;stroke-width:5;stroke-linecap:butt;stroke-linejoin:miter;stroke-miterlimit:4;stroke-dasharray:none;stroke-opacity:1" />
        <path
           inkscape:connector-curvature="0"
           id="path4245"
           d="M 281.20728,400.49195 262.88442,382.17371"
           style="fill:none;fill-opacity:1;fill-rule:evenodd;stroke:#ffffff;stroke-width:5;stroke-linecap:butt;stroke-linejoin:miter;stroke-miterlimit:4;stroke-dasharray:none;stroke-opacity:1" />
        <path
           sodipodi:nodetypes="cc"
           inkscape:connector-curvature="0"
           id="path4247"
           d="m 232.4287,257.54138 0,58.72108"
           style="fill:none;fill-opacity:1;fill-rule:evenodd;stroke:#ffffff;stroke-width:5;stroke-linecap:butt;stroke-linejoin:miter;stroke-miterlimit:4;stroke-dasharray:none;stroke-opacity:1" />
        <path
           inkscape:connector-curvature="0"
           id="path4249"
           d="m 233.1318,278.20844 22.11918,22.11361"
           style="fill:none;fill-opacity:1;fill-rule:evenodd;stroke:#ffffff;stroke-width:5;stroke-linecap:butt;stroke-linejoin:miter;stroke-miterlimit:4;stroke-dasharray:none;stroke-opacity:1" />
        <path
           inkscape:connector-curvature="0"
           id="path4257"
           d="m 195.98453,464.73508 26.48277,0 7.16735,7.16555"
           style="fill:none;fill-opacity:1;fill-rule:evenodd;stroke:#ffffff;stroke-width:5;stroke-linecap:butt;stroke-linejoin:miter;stroke-miterlimit:4;stroke-dasharray:none;stroke-opacity:1" />
        <path
           inkscape:connector-curvature="0"
           id="path4259"
           d="m 210.06586,463.98986 16.15691,-16.15285"
           style="fill:none;fill-opacity:1;fill-rule:evenodd;stroke:#ffffff;stroke-width:5;stroke-linecap:butt;stroke-linejoin:miter;stroke-miterlimit:4;stroke-dasharray:none;stroke-opacity:1" />
        <path
           sodipodi:nodetypes="ccc"
           inkscape:connector-curvature="0"
           id="path4462"
           d="m 202.78744,403.76718 17.97913,17.9746 26.06042,0"
           style="fill:none;fill-opacity:1;fill-rule:evenodd;stroke:#ffffff;stroke-width:5;stroke-linecap:butt;stroke-linejoin:miter;stroke-miterlimit:4;stroke-dasharray:none;stroke-opacity:1" />
        <path
           inkscape:connector-curvature="0"
           id="path4464"
           d="m 214.20662,414.21188 23.56723,-23.5613"
           style="fill:none;fill-opacity:1;fill-rule:evenodd;stroke:#ffffff;stroke-width:5;stroke-linecap:butt;stroke-linejoin:miter;stroke-miterlimit:4;stroke-dasharray:none;stroke-opacity:1" />
        <path
           inkscape:connector-curvature="0"
           id="path4466"
           d="m 226.8406,401.58107 0,-41.77879"
           style="fill:none;fill-opacity:1;fill-rule:evenodd;stroke:#ffffff;stroke-width:5;stroke-linecap:butt;stroke-linejoin:miter;stroke-miterlimit:4;stroke-dasharray:none;stroke-opacity:1" />
        <path
           sodipodi:nodetypes="ccc"
           inkscape:connector-curvature="0"
           id="path4468"
           d="m 232.4287,294.21928 -18.95097,18.9462 0,23.11264"
           style="fill:none;fill-opacity:1;fill-rule:evenodd;stroke:#ffffff;stroke-width:5;stroke-linecap:butt;stroke-linejoin:miter;stroke-miterlimit:4;stroke-dasharray:none;stroke-opacity:1" />
        <path
           sodipodi:nodetypes="cc"
           inkscape:connector-curvature="0"
           id="path4259-8"
           d="m 274.3134,427.89335 0,20.59675"
           style="fill:none;fill-opacity:1;fill-rule:evenodd;stroke:#ffffff;stroke-width:5;stroke-linecap:butt;stroke-linejoin:miter;stroke-miterlimit:4;stroke-dasharray:none;stroke-opacity:1" />
      </g>
      <g
         id="g4240"
         style="fill:none;fill-opacity:1;stroke:#ffffff;stroke-opacity:1"
         transform="matrix(0.09631994,0,0,0.0962957,108.37295,18.213259)">
        <path
           inkscape:connector-curvature="0"
           id="path4261"
           d="m 484.17002,444.61388 a 13.283913,13.283913 0 0 1 -13.28391,13.28391 13.283913,13.283913 0 0 1 -13.28391,-13.28391 13.283913,13.283913 0 0 1 13.28391,-13.28391 13.283913,13.283913 0 0 1 13.28391,13.28391 z"
           style="fill:none;fill-opacity:1;fill-rule:evenodd;stroke:#ffffff;stroke-width:9.43217564;stroke-linecap:round;stroke-linejoin:miter;stroke-miterlimit:4;stroke-dasharray:none;stroke-opacity:1" />
        <path
           inkscape:connector-curvature="0"
           id="path4261-6"
           d="m 491.18093,389.97409 a 13.283913,13.283913 0 0 1 -13.28391,13.28391 13.283913,13.283913 0 0 1 -13.28391,-13.28391 13.283913,13.283913 0 0 1 13.28391,-13.28391 13.283913,13.283913 0 0 1 13.28391,13.28391 z"
           style="fill:none;fill-opacity:1;fill-rule:evenodd;stroke:#ffffff;stroke-width:9.43217564;stroke-linecap:round;stroke-linejoin:miter;stroke-miterlimit:4;stroke-dasharray:none;stroke-opacity:1" />
        <path
           inkscape:connector-curvature="0"
           id="path4261-0"
           d="m 408.1155,226.57713 a 13.283913,13.283913 0 0 1 -13.28391,13.28391 13.283913,13.283913 0 0 1 -13.28391,-13.28391 13.283913,13.283913 0 0 1 13.28391,-13.28391 13.283913,13.283913 0 0 1 13.28391,13.28391 z"
           style="fill:none;fill-opacity:1;fill-rule:evenodd;stroke:#ffffff;stroke-width:9.43217564;stroke-linecap:round;stroke-linejoin:miter;stroke-miterlimit:4;stroke-dasharray:none;stroke-opacity:1" />
        <path
           inkscape:connector-curvature="0"
           id="path4261-8"
           d="m 305.75463,323.18973 a 13.283913,13.283913 0 0 1 -13.28391,13.28391 13.283913,13.283913 0 0 1 -13.28391,-13.28391 13.283913,13.283913 0 0 1 13.28391,-13.28391 13.283913,13.283913 0 0 1 13.28391,13.28391 z"
           style="fill:none;fill-opacity:1;fill-rule:evenodd;stroke:#ffffff;stroke-width:9.43217564;stroke-linecap:round;stroke-linejoin:miter;stroke-miterlimit:4;stroke-dasharray:none;stroke-opacity:1" />
        <path
           inkscape:connector-curvature="0"
           id="path4261-8-2"
           d="M 422.65469,90.723002 A 13.283913,13.283913 0 0 1 409.37078,104.00691 13.283913,13.283913 0 0 1 396.08686,90.723002 13.283913,13.283913 0 0 1 409.37078,77.43909 13.283913,13.283913 0 0 1 422.65469,90.723002 Z"
           style="fill:none;fill-opacity:1;fill-rule:evenodd;stroke:#ffffff;stroke-width:9.43217564;stroke-linecap:round;stroke-linejoin:miter;stroke-miterlimit:4;stroke-dasharray:none;stroke-opacity:1" />
      </g>
      <g
         id="g4235"
         transform="matrix(0.16666667,0,0,0.16666667,104.05433,-17.299905)"
         style="stroke:#ffffff;stroke-opacity:1">
        <g
           transform="matrix(0.57791968,0,0,0.57777419,25.911722,213.07895)"
           style="stroke:#ffffff;stroke-opacity:1"
           id="g4262">
          <path
             style="fill:none;fill-rule:evenodd;stroke:#ffffff;stroke-width:18.17090225;stroke-linecap:butt;stroke-linejoin:miter;stroke-miterlimit:4;stroke-dasharray:none;stroke-opacity:1"
             d="m 464.54658,450.96948 -34.46426,34.46426 -120.13663,0 -17.53906,-17.53907 0,-129.92013 m 0,-29.1657 0,-220.233548 17.83634,-17.836337 78.93015,0 11.49879,11.498791 m 17.85466,17.854654 24.45283,24.45283 0,53.509 -34.18631,34.18631 -4.08968,4.08968"
             id="path4233"
             inkscape:connector-curvature="0"
             sodipodi:nodetypes="ccccccccccccccc" />
          <path
             style="fill:none;fill-rule:evenodd;stroke:#ffffff;stroke-width:18.17090225;stroke-linecap:butt;stroke-linejoin:miter;stroke-miterlimit:4;stroke-dasharray:none;stroke-opacity:1"
             d="m 438.69882,194.48291 39.23994,39.23993 0,133.17797 0,8.24492"
             id="path4235"
             inkscape:connector-curvature="0"
             sodipodi:nodetypes="ccc" />
        </g>
        <path
           inkscape:connector-curvature="0"
           id="path4241"
           d="m 303.13294,396.85127 -46.72946,46.7177 0,45.34364"
           style="fill:none;fill-rule:evenodd;stroke:#ffffff;stroke-width:8;stroke-linecap:butt;stroke-linejoin:miter;stroke-miterlimit:4;stroke-dasharray:none;stroke-opacity:1" />
      </g>
      <g
         id="g4227"
         style="stroke:#ffffff;stroke-opacity:1"
         transform="matrix(0.09631994,0,0,0.0962957,108.37295,18.213259)">
        <path
           inkscape:connector-curvature="0"
           id="path4261-8-0"
           d="m 399.62277,293.28461 a 7.7489528,7.7489528 0 0 0 10.95867,-10e-6 7.7489528,7.7489528 0 0 0 0,-10.95866 7.7489528,7.7489528 0 0 0 -10.95865,0 7.7489528,7.7489528 0 0 0 -2e-5,10.95867 z"
           style="fill:none;fill-opacity:1;fill-rule:evenodd;stroke:#ffffff;stroke-width:5.50210476;stroke-linecap:round;stroke-linejoin:miter;stroke-miterlimit:4;stroke-dasharray:none;stroke-opacity:1" />
        <path
           inkscape:connector-curvature="0"
           id="path4261-8-0-5"
           d="m 435.45027,265.71105 a 7.7489528,7.7489528 0 0 0 10.95868,-2e-5 7.7489528,7.7489528 0 0 0 -1e-5,-10.95865 7.7489528,7.7489528 0 0 0 -10.95866,0 7.7489528,7.7489528 0 0 0 -1e-5,10.95867 z"
           style="fill:none;fill-opacity:1;fill-rule:evenodd;stroke:#ffffff;stroke-width:5.50210476;stroke-linecap:round;stroke-linejoin:miter;stroke-miterlimit:4;stroke-dasharray:none;stroke-opacity:1" />
        <path
           inkscape:connector-curvature="0"
           id="path4261-8-0-6"
           d="m 398.50088,361.053 a 7.7489528,7.7489528 0 0 1 -7.74896,7.74894 7.7489528,7.7489528 0 0 1 -7.74894,-7.74894 7.7489528,7.7489528 0 0 1 7.74894,-7.74894 7.7489528,7.7489528 0 0 1 7.74896,7.74894 z"
           style="fill:none;fill-opacity:1;fill-rule:evenodd;stroke:#ffffff;stroke-width:5.50210476;stroke-linecap:round;stroke-linejoin:miter;stroke-miterlimit:4;stroke-dasharray:none;stroke-opacity:1" />
        <path
           inkscape:connector-curvature="0"
           id="path4261-8-0-4"
           d="m 359.90111,400.52516 a 7.7489528,7.7489528 0 0 1 -7.74896,7.74894 7.7489528,7.7489528 0 0 1 -7.74894,-7.74894 7.7489528,7.7489528 0 0 1 7.74894,-7.74894 7.7489528,7.7489528 0 0 1 7.74896,7.74894 z"
           style="fill:none;fill-opacity:1;fill-rule:evenodd;stroke:#ffffff;stroke-width:5.50210476;stroke-linecap:round;stroke-linejoin:miter;stroke-miterlimit:4;stroke-dasharray:none;stroke-opacity:1" />
        <path
           inkscape:connector-curvature="0"
           id="path4261-8-0-48"
           d="m 366.16805,453.92907 a 7.7489528,7.7489528 0 0 1 -7.74896,7.74894 7.7489528,7.7489528 0 0 1 -7.74894,-7.74894 7.7489528,7.7489528 0 0 1 7.74894,-7.74894 7.7489528,7.7489528 0 0 1 7.74896,7.74894 z"
           style="fill:none;fill-opacity:1;fill-rule:evenodd;stroke:#ffffff;stroke-width:5.50210476;stroke-linecap:round;stroke-linejoin:miter;stroke-miterlimit:4;stroke-dasharray:none;stroke-opacity:1" />
        <path
           inkscape:connector-curvature="0"
           id="path4261-8-0-6-6"
           d="m 378.07447,303.71142 a 7.7489528,7.7489528 0 0 1 -7.74896,7.74894 7.7489528,7.7489528 0 0 1 -7.74894,-7.74894 7.7489528,7.7489528 0 0 1 7.74894,-7.74894 7.7489528,7.7489528 0 0 1 7.74896,7.74894 z"
           style="fill:none;fill-opacity:1;fill-rule:evenodd;stroke:#ffffff;stroke-width:5.50210476;stroke-linecap:round;stroke-linejoin:miter;stroke-miterlimit:4;stroke-dasharray:none;stroke-opacity:1" />
        <path
           inkscape:connector-curvature="0"
           id="path4261-8-0-6-7"
           d="m 355.29958,248.74346 a 7.7489528,7.7489528 0 0 1 -7.74896,7.74894 7.7489528,7.7489528 0 0 1 -7.74894,-7.74894 7.7489528,7.7489528 0 0 1 7.74894,-7.74894 7.7489528,7.7489528 0 0 1 7.74896,7.74894 z"
           style="fill:none;fill-opacity:1;fill-rule:evenodd;stroke:#ffffff;stroke-width:5.50210476;stroke-linecap:round;stroke-linejoin:miter;stroke-miterlimit:4;stroke-dasharray:none;stroke-opacity:1" />
        <path
           sodipodi:nodetypes="sssss"
           inkscape:connector-curvature="0"
           id="path4261-8-0-6-8"
           d="m 365.2303,186.60646 c -10e-6,4.27962 -3.46933,7.74894 -7.74896,7.74894 -4.27962,-1e-5 -7.74893,-3.46932 -7.74894,-7.74894 1e-5,-4.27962 3.46932,-7.74894 7.74894,-7.74894 4.27963,-1e-5 7.74895,3.46931 7.74896,7.74894 z"
           style="fill:none;fill-opacity:1;fill-rule:evenodd;stroke:#ffffff;stroke-width:5.50210476;stroke-linecap:round;stroke-linejoin:miter;stroke-miterlimit:4;stroke-dasharray:none;stroke-opacity:1" />
        <path
           sodipodi:nodetypes="sssss"
           inkscape:connector-curvature="0"
           id="path4261-8-0-6-5"
           d="m 332.26098,218.62261 c -1e-5,4.27962 -3.46933,7.74894 -7.74896,7.74894 -4.27962,-1e-5 -7.74893,-3.46932 -7.74894,-7.74894 10e-6,-4.27962 3.46932,-7.74894 7.74894,-7.74894 4.27963,-1e-5 7.74895,3.46931 7.74896,7.74894 z"
           style="fill:none;fill-opacity:1;fill-rule:evenodd;stroke:#ffffff;stroke-width:5.50210476;stroke-linecap:round;stroke-linejoin:miter;stroke-miterlimit:4;stroke-dasharray:none;stroke-opacity:1" />
        <path
           inkscape:connector-curvature="0"
           id="path4261-8-0-6-78"
           d="m 411.15663,157.27891 a 7.7489528,7.7489528 0 0 1 -7.74896,7.74894 7.7489528,7.7489528 0 0 1 -7.74894,-7.74894 7.7489528,7.7489528 0 0 1 7.74894,-7.74894 7.7489528,7.7489528 0 0 1 7.74896,7.74894 z"
           style="fill:none;fill-opacity:1;fill-rule:evenodd;stroke:#ffffff;stroke-width:5.50210476;stroke-linecap:round;stroke-linejoin:miter;stroke-miterlimit:4;stroke-dasharray:none;stroke-opacity:1" />
        <path
           sodipodi:nodetypes="sssss"
           inkscape:connector-curvature="0"
           id="path4261-8-0-4-9"
           d="m 424.51383,421.35935 c -3.02615,-3.02616 -3.02614,-7.93252 2e-5,-10.95867 3.02615,-3.02614 7.9325,-3.02614 10.95865,0 3.02614,3.02615 3.02614,7.9325 0,10.95865 -3.02615,3.02616 -7.93251,3.02617 -10.95867,2e-5 z"
           style="fill:none;fill-opacity:1;fill-rule:evenodd;stroke:#ffffff;stroke-width:5.50210476;stroke-linecap:round;stroke-linejoin:miter;stroke-miterlimit:4;stroke-dasharray:none;stroke-opacity:1" />
      </g>
    </g>
  </g>
</svg>
