<svg role="img" title="Über uns" xmlns="http://www.w3.org/2000/svg" class="section-logo" viewBox="0 0 32 32">
  <path fill-rule="evenodd" d="M32 16a16 16 0 0 1-16 16A16 16 0 0 1 0 16 16 16 0 0 1 16 0a16 16 0 0 1 16 16zm-7.5.036c2.244 2.377 3.25 4.715 2.378 6.215-.87 1.497-3.407 1.805-6.595 1.072-.954 3.132-2.5 5.178-4.248 5.178-1.75 0-3.295-2.052-4.247-5.194-3.223.755-5.79.452-6.667-1.055-.87-1.5.135-3.84 2.38-6.22-2.288-2.4-3.317-4.768-2.437-6.28.88-1.514 3.472-1.813 6.717-1.044.953-3.148 2.503-5.206 4.256-5.206 1.752 0 3.297 2.05 4.25 5.192 3.214-.75 5.777-.446 6.653 1.06.876 1.51-.154 3.88-2.44 6.284zM5.97 10.272c-.674 1.157.255 3.055 2.22 5.06.803-.767 1.726-1.53 2.753-2.262.125-1.217.316-2.37.578-3.422-2.746-.693-4.874-.538-5.55.624zm4.863 4.153c-.705.526-1.348 1.06-1.924 1.594.583.536 1.213 1.074 1.927 1.605-.03-.534-.05-1.073-.05-1.625 0-.534.017-1.06.046-1.575zm.11 4.55c-1.03-.73-1.95-1.49-2.754-2.256-1.932 1.987-2.828 3.862-2.16 5.01.672 1.154 2.777 1.315 5.5.636-.262-1.045-.463-2.18-.588-3.392zm9.058.71c-.436.283-.882.56-1.347.826-.472.27-.943.52-1.413.756.805.336 1.593.63 2.34.854.176-.753.312-1.575.42-2.434zm-3.966 7.773c1.34 0 2.53-1.716 3.298-4.38-1.062-.3-2.183-.717-3.326-1.225-1.123.5-2.22.904-3.266 1.204.767 2.672 1.954 4.4 3.294 4.4zm-3.536-5.362c.726-.222 1.486-.498 2.267-.825-.472-.236-.947-.487-1.42-.758-.44-.253-.862-.512-1.276-.78.105.844.257 1.622.428 2.364zm-.427-9.79c.432-.28.875-.552 1.334-.816.453-.26.906-.5 1.358-.73-.784-.328-1.55-.618-2.28-.842-.172.74-.304 1.547-.41 2.387zm3.964-7.764c-1.344 0-2.538 1.732-3.307 4.416 1.045.302 2.145.716 3.265 1.218 1.147-.516 2.27-.93 3.336-1.234-.767-2.67-1.953-4.4-3.294-4.4zm3.538 5.36c-.752.23-1.537.513-2.347.855.455.23.912.47 1.368.734.492.282.96.576 1.42.874-.107-.88-.263-1.692-.44-2.463zm.576 3.795c-.655-.448-1.348-.885-2.08-1.304-.7-.4-1.396-.752-2.083-1.08-.678.325-1.366.685-2.056 1.08-.7.4-1.365.817-1.992 1.24-.06.767-.102 1.552-.102 2.368 0 .826.034 1.628.095 2.403.614.414 1.262.82 1.94 1.207.72.413 1.434.773 2.14 1.108.698-.333 1.407-.7 2.117-1.108.703-.402 1.372-.82 2.005-1.25.06-.764.102-1.546.102-2.36 0-.79-.03-1.56-.086-2.303zm5.82 8.033c.668-1.146-.236-3.018-2.163-5-.784.743-1.682 1.48-2.678 2.19-.125 1.234-.32 2.403-.585 3.466 2.687.658 4.76.488 5.426-.656zm-4.73-4.163c.674-.506 1.292-1.02 1.85-1.53-.56-.52-1.163-1.04-1.846-1.555.024.5.042 1.004.042 1.518 0 .533-.02 1.054-.046 1.567zm4.79-7.295c-.672-1.153-2.77-1.316-5.486-.64.267 1.074.473 2.248.597 3.5.996.716 1.888 1.46 2.67 2.21 1.97-2.01 2.892-3.91 2.217-5.07zm-9.833 7.71c-1.152 0-2.086-.926-2.086-2.07 0-1.14.933-2.067 2.085-2.067 1.15 0 2.084.927 2.084 2.068 0 1.144-.934 2.07-2.085 2.07z"/>
</svg>
