<svg role="img" title="Kontakt" xmlns="http://www.w3.org/2000/svg" class="section-logo" viewBox="0 0 32 32">
  <path d="M32 16a16 16 0 0 1-16 16A16 16 0 0 1 0 16 16 16 0 0 1 16 0a16 16 0 0 1 16 16zm-13.143-3h-7.143v1.333h7.143V13zm-4.286-2.667h-2.856v1.334h2.857v-1.334zm8.573-.572V7.668H20L16 5l-4 2.667H8.857V9.76L6 11.668V25h20V11.667L23.143 9.76zM10.286 9h11.428v5.1L16 18.5l-5.714-4.4V9zM7.43 14.333l5.624 3.992-5.625 4.008v-8zm1.427 9.334l5.67-4.297L16 20.417l1.47-1.044 5.674 4.294H8.858zm15.714-1.334l-5.632-4 5.633-4v8z"/>
</svg>
