<svg role="img" title="Portfolio" xmlns="http://www.w3.org/2000/svg" class="section-logo" viewBox="0 0 32 32">
  <path d="M16 13.818c-1.578 0-2.857 1.303-2.857 2.91 0 1.606 1.28 2.908 2.857 2.908.128 0 .253-.008.376-.025-1.034-.16-1.827-1.07-1.827-2.167 0-1.21.964-2.194 2.154-2.194 1.078 0 1.972.807 2.13 1.86.015-.125.024-.253.024-.383 0-1.607-1.28-2.91-2.857-2.91zm8.57-2.91h-2.856L18.857 8h-5.714l-2.857 2.91H7.43c-.79 0-1.43.65-1.43 1.454v10.18C6 23.35 6.64 24 7.43 24h17.14c.79 0 1.43-.65 1.43-1.455v-10.18c0-.805-.64-1.456-1.43-1.456zM13.858 9.456h4.286l1.428 1.454h-7.14l1.427-1.455zm-5.71 13.09c-.398 0-.718-.327-.718-.73v-6.542h1.427v-1.455H7.43v-.724c0-.404.32-.73.716-.73h4.074c-.09.08-.176.163-.26.25-2.232 2.27-2.232 5.955 0 8.227l1.673 1.705H8.146zM16 21.09c-2.367 0-4.286-1.953-4.286-4.363s1.92-4.363 4.286-4.363c2.367 0 4.286 1.953 4.286 4.363S18.366 21.09 16 21.09zM23.143 16l-3.364-3.636h3.363V16zM32 16a16 16 0 0 1-16 16A16 16 0 0 1 0 16 16 16 0 0 1 16 0a16 16 0 0 1 16 16z"/>
</svg>
