<svg role="img" title="Leistungen" xmlns="http://www.w3.org/2000/svg" class="section-logo" viewBox="0 0 32 32">
  <path d="M11.593 15.082c.33.328 1.598 1.666 1.598 1.666l.704-.724-1.102-1.138 2.115-2.245s-.955-.93-.537-.558c.4-1.483.036-3.136-1.09-4.302-1.118-1.156-2.705-1.535-4.13-1.137l2.415 2.495-.636 2.447-2.367.653-2.415-2.495c-.385 1.473-.02 3.112 1.1 4.27 1.175 1.212 2.866 1.57 4.346 1.07zm8.057 2.426l-2.914 2.877 4.806 4.976c.392.408.91.61 1.424.61.513 0 1.03-.202 1.423-.61.786-.812.786-2.127 0-2.94l-4.74-4.912zM26 9.16L22.94 6l-9.024 9.322 1.102 1.138-5.4 5.578-1.235.66L6.64 25.54l.444.46 2.752-1.802.638-1.275 5.4-5.578 1.103 1.138L26 9.16zM32 16a16 16 0 0 1-16 16A16 16 0 0 1 0 16 16 16 0 0 1 16 0a16 16 0 0 1 16 16z"/>
</svg>
