<svg role="img" title="Team" xmlns="http://www.w3.org/2000/svg" class="section-logo" viewBox="0 0 32 32">
  <path fill-rule="evenodd" d="M32 16a16 16 0 0 1-16 16A16 16 0 0 1 0 16 16 16 0 0 1 16 0a16 16 0 0 1 16 16zm-6.222 6.562v-4.345h-2.115v4.36h-2.207v2.158h-5.123v-2.173h5.123v-2.17H10.56v2.17l4.382.016v2.172h-4.398v-2.156H8.338v-4.39H6.222v4.344H4V15.97h2.177v-2.112h2.16v-2.233h2.223V9.437h2.176v2.194l6.53.02V9.44h2.175v2.218h2.227v2.173h2.146V16H28v6.562h-2.222zm-13.042-8.75H10.56V16h2.176v-2.188zm8.705 0h-2.17V16h2.176v-2.188zM8.34 7.25h2.222v2.187H8.338V7.25zm15.325 0v2.187H21.44V7.25h2.223z"/>
</svg>
