<svg xmlns="http://www.w3.org/2000/svg" class="logo logo--two-brain-with-brand" viewBox="0 0 385 100">
  <path fill="#d32f2f" d="M65.322 8.146v12.83l-6.82 6.82v8.694H60.3v-7.95l5.022-5.02v5.764h1.798v-11.78l6.682 6.678 1.27-1.27-7.952-7.95V8.145h-1.798zM63.31 44.96v14.665l-3.823 3.82-3.298-3.298-1.29 1.275 6.73 6.733h9.74v-1.802h-9l-1.63-1.633 8.02-8.02-1.27-1.275-2.41 2.4V44.957H63.3zm19.375 2.825v9.452l-4.863-4.863-1.273 1.272 6.14 6.136v5.49h1.81V47.786h-1.81zM80.398 69.47v7.415h1.8v-7.418h-1.8zm-17.046 6.54l-5.815 5.814.005.005h-4.428v1.8h9.166l2.322 2.31 1.27-1.28-2.85-2.84h-2.93l4.55-4.54-1.27-1.27zm138.936-36.274h27.843v7.497h-27.84v-7.497z"/>
  <path fill="#404640" d="M55.64 4.963L50.823 9.78v46.38c-1.096.662-1.84 1.85-1.84 3.2 0 1.363.74 2.55 1.835 3.213v27.673L55.568 95h26.567l6.763-6.763c.297.08.608.135.932.135 2.052 0 3.74-1.688 3.74-3.74 0-2.05-1.688-3.74-3.754-3.74-2.065 0-3.753 1.69-3.753 3.74 0 .338.054.635.135.945l-5.656 5.657h-4.28V75.71l13.122-13.122v7.452c-1.107.66-1.863 1.85-1.863 3.213 0 2.065 1.69 3.752 3.74 3.752 2.06 0 3.74-1.687 3.74-3.74 0-1.362-.74-2.54-1.84-3.198V39.975l-8.64-8.64 1.38-1.375V17.27l-5.28-5.28c.08-.31.14-.635.14-.973 0-2.054-1.69-3.742-3.74-3.742-.33 0-.66.055-.97.136L73.6 4.95H55.64zm1.565 3.78h14.862l1.364 1.364c-.06.29-.12.59-.12.904 0 2.06 1.69 3.75 3.76 3.75.31 0 .62-.05.91-.12l4.2 4.2v9.56l-6.56 6.56-.69.69c-.28-.06-.56-.11-.86-.11-2.05 0-3.74 1.69-3.74 3.76s1.69 3.75 3.76 3.75c2.06 0 3.74-1.68 3.74-3.74 0-.33-.06-.67-.15-.99l.65-.65 3.63-3.61 7.54 7.54v16.96L73.42 74.52v16.7H57.15l-2.543-2.542V62.576c1.11-.652 1.87-1.847 1.87-3.217 0-1.38-.76-2.57-1.87-3.23V11.34l2.602-2.6zm19.844.48c.99 0 1.78.788 1.78 1.783 0 .996-.79 1.782-1.78 1.782s-1.79-.786-1.79-1.782c0-.995.79-1.782 1.78-1.782zM74.02 37.48c1 0 1.782.79 1.782 1.784 0 .996-.783 1.78-1.782 1.78-.986 0-1.782-.784-1.782-1.78 0-.995.797-1.782 1.783-1.782zm-21.29 20.1c.997 0 1.783.786 1.783 1.782 0 .995-.786 1.782-1.782 1.782-.99 0-1.78-.787-1.78-1.782 0-.996.79-1.782 1.79-1.782zM91.3 71.467c.992 0 1.78.787 1.78 1.782s-.788 1.78-1.78 1.78c-1 0-1.786-.79-1.786-1.79s.787-1.78 1.782-1.78zm-1.46 11.367c.994 0 1.783.787 1.783 1.782 0 .996-.79 1.782-1.782 1.782-1 0-1.78-.786-1.78-1.782 0-.995.79-1.782 1.78-1.782zm-8.51-6.376c-.56 0-1.12.212-1.542.634-.85.85-.85 2.24 0 3.092.848.846 2.24.846 3.09 0 .85-.85.85-2.24 0-3.092-.42-.422-.973-.634-1.54-.634zm0 1.138c.267 0 .53.103.738.308.41.41.41 1.06 0 1.47-.41.41-1.06.41-1.47 0-.41-.41-.41-1.06 0-1.47.204-.205.472-.308.735-.308zm-5.53-54.93c-1.2 0-2.183.987-2.183 2.188 0 1.197.987 2.183 2.185 2.183 1.2 0 2.184-.986 2.184-2.184 0-1.2-.987-2.184-2.186-2.184zm0 1.15c.58 0 1.04.457 1.04 1.038 0 .58-.46 1.04-1.04 1.04-.58 0-1.04-.46-1.04-1.04 0-.58.46-1.04 1.04-1.04zm-16.41 11.61c-1.2 0-2.183.984-2.183 2.183 0 1.2.986 2.18 2.184 2.18 1.21 0 2.19-.99 2.19-2.19s-.98-2.19-2.18-2.19zm0 1.144c.58 0 1.04.46 1.04 1.04 0 .58-.46 1.04-1.04 1.04-.58 0-1.04-.46-1.04-1.04 0-.58.46-1.04 1.04-1.04zm6.86-7.802c-1.2 0-2.184.986-2.184 2.184 0 1.2.986 2.183 2.184 2.183 1.2 0 2.185-.985 2.185-2.183 0-1.2-.986-2.184-2.185-2.184zm0 1.145c.58 0 1.04.46 1.04 1.04 0 .58-.46 1.04-1.04 1.04-.58 0-1.04-.46-1.04-1.04 0-.58.46-1.04 1.04-1.04zM64.185 41.69c-1.2 0-2.187.986-2.187 2.188 0 1.2.986 2.187 2.187 2.187 1.2 0 2.184-.986 2.184-2.187 0-1.202-.99-2.187-2.19-2.187zm0 1.148c.58 0 1.04.46 1.04 1.04 0 .58-.46 1.04-1.04 1.04-.58 0-1.04-.46-1.04-1.04 0-.58.46-1.04 1.04-1.04zm4.738 10.287c-1.2 0-2.187.985-2.187 2.187 0 1.2.986 2.187 2.187 2.187 1.2 0 2.184-.99 2.184-2.19s-.985-2.19-2.186-2.19zm0 1.147c.58 0 1.04.46 1.04 1.04 0 .58-.46 1.04-1.04 1.04-.58 0-1.04-.46-1.04-1.04 0-.58.46-1.04 1.04-1.04zm-2.477 30.104c-1.2 0-2.187.985-2.187 2.187 0 1.2.98 2.187 2.18 2.187 1.2 0 2.18-.986 2.18-2.174 0-1.2-.99-2.186-2.19-2.186zm0 1.147c.58 0 1.04.46 1.04 1.04 0 .58-.46 1.04-1.04 1.04-.58 0-1.04-.46-1.04-1.04 0-.58.46-1.04 1.04-1.04zM65.142 73.28c-1.188 0-2.173.985-2.173 2.186 0 1.202.98 2.187 2.18 2.187 1.2 0 2.18-.985 2.18-2.173 0-1.202-.99-2.187-2.19-2.187zm0 1.147c.58 0 1.04.46 1.04 1.04 0 .58-.46 1.04-1.04 1.04-.58 0-1.04-.46-1.04-1.04 0-.58.46-1.04 1.04-1.04zm8.032-9.355c-1.2 0-2.187.985-2.187 2.187 0 1.2.986 2.18 2.187 2.18 1.202 0 2.187-.99 2.187-2.19s-.98-2.19-2.18-2.19zm0 1.147c.58 0 1.04.45 1.04 1.04 0 .58-.46 1.03-1.04 1.03-.58 0-1.04-.46-1.04-1.04 0-.58.46-1.04 1.04-1.04zm10.45-22.12c-.555 0-1.122.21-1.54.64-.85.85-.85 2.24 0 3.09.85.85 2.24.85 3.09 0 .852-.85.852-2.24 0-3.09-.417-.42-.984-.64-1.538-.64zm0 1.14c.27 0 .54.11.74.31.42.42.42 1.07 0 1.47-.404.42-1.052.42-1.47 0-.405-.41-.405-1.06 0-1.47.216-.2.472-.31.742-.31zm-7.453 4.59c-.55 0-1.12.21-1.53.65-.85.84-.85 2.24 0 3.08.85.85 2.24.85 3.09 0 .85-.85.85-2.24 0-3.09-.42-.44-.98-.65-1.54-.65zm0 1.15c.27 0 .53.1.75.31.42.4.42 1.05 0 1.47-.4.4-1.05.4-1.47 0-.4-.42-.4-1.07 0-1.47.21-.22.48-.31.75-.31zm-48 5.66c.71-3.5 2.49-5.87 5.93-7.89 2.2-1.3 3.08-1.49 3.74-.82.58.59.75 1.77.35 2.43-.18.3-1.36 1.25-2.61 2.11-2.61 1.79-3.12 2.45-3.53 4.62-.48 2.53-1.18 3.11-2.95 2.45-1.06-.4-1.27-1.08-.9-2.92zm-5.59-30.82c-1.2-1.17-.64-2.41 1.54-3.4 3.32-1.51 5.97-3.79 7.06-6.06 1.19-2.48 2.14-3.02 3.49-1.98 2.81 2.15-3.32 10.41-8.71 11.74-1.81.44-2.67.36-3.36-.32zm1.07 18c-.31-.2-.88-.9-1.26-1.56-1.15-1.97-2.1-2.53-5.36-3.17-.93-.19-1.32-.42-1.51-.87-.37-.93-.18-2.06.44-2.58.48-.4.84-.41 2.68-.07 3.43.65 5.9 2.61 7.36 5.85.37.81.38 1.11.07 1.67-.47.83-1.62 1.18-2.36.71zm9.09 42.29c-.77-.4-1.21-1-1.23-1.68-.02-.97-1.28-4.22-2.19-5.7-1.24-2.01-3.49-4.18-5.04-4.87-.73-.32-2.13-.71-3.12-.85-2.2-.32-2.63-.54-2.97-1.46-.29-.84-.09-1.57.67-2.26.47-.42.81-.47 2.31-.35 5.04.39 9.49 3.52 12.21 8.57 1.855 3.48 2.625 7.3 1.64 8.18-.835.74-1.43.86-2.226.44zm10.61 8.12c.81-.23 1.55-.65 1.97-1.14l.68-.78.09-7.64c.05-4.21.05-22.93.02-41.62L46.02 9.1l-.636-1.247c-1.12-2.21-2.99-2.92-7.49-2.856-6.18.09-9.97 1.743-12.22 5.327-.93 1.475-1.522 1.868-3.62 2.376-2.98.726-6.38 2.792-7.73 4.684-2.72 3.816-3.86 7.476-3.18 10 .2.755.297 1.522.19 1.7-.11.18-.757.724-1.47 1.208-1.607 1.094-2.457 2.74-3.335 6.362-1.07 4.417-.75 10 .82 14.007 1.44 3.72 5.88 7.37 8.89 7.33 1.05-.01 2.33.49 2.62 1.02.82 1.5-.22 3.12-2.02 3.12-2.54 0-5.88-1.27-8.21-3.12-.83-.67-1.62-1.14-1.76-1.05-.39.25-1.47 4.24-1.76 6.5-.59 4.63 1.06 9.61 4.28 12.94 1.35 1.39 4.15 2.68 6.7 3.08 1.58.26 1.86.49 3.45 2.9 3.73 5.66 9.84 9.84 16.01 10.95 2.38.42 6.002.38 7.72-.1zm89.62-30.75q-3.32.47-5.97.47-2.48 0-4.53-.91-2.02-.91-3.3-2.47-.99-1.19-1.49-2.78-.5-1.6-.55-2.66-.06-1.06-.06-2.94V39.16h-7.95v-7.67h7.96v-7.998h7.95v7.998h7.96v7.685h-7.96v12.748q0 2.316.46 3.442.5 1.127 1.83 1.127 2.21 0 5.65-.47v7.5zm22.66-20.02l2.61 12.18h.31q1.03-10.72 1.03-24.18h7.71q0 15.96-3.38 31.99h-8.51l-2.45-10.93h-.31l-2.45 10.94h-8.51q-3.39-16.02-3.39-31.99H146q0 13.47 1.02 24.18h.31l2.61-12.18h5.71zm23.69-11.15q2.3-1.34 5.19-1.34 2.9 0 5.16 1.34 2.3 1.31 3.76 3.65 1.22 2 1.62 4.75.41 2.72.41 6.75 0 4.03-.4 6.78-.4 2.71-1.61 4.71-1.45 2.34-3.75 3.68-2.26 1.31-5.15 1.31-2.88 0-5.19-1.31-2.27-1.35-3.72-3.69-1.2-2-1.6-4.72-.4-2.75-.4-6.78t.4-6.75q.41-2.75 1.62-4.75 1.47-2.34 3.74-3.66zm7.55 8.31q-.78-2.16-2.36-2.16-1.59 0-2.37 2.15-.62 1.72-.62 6.84t.62 6.84q.78 2.16 2.36 2.16 1.58 0 2.36-2.16.62-1.72.62-6.84t-.62-6.84zm64.55-9.65q2.36 0 4.16 1.97 1.84 1.94 2.68 5.44.66 2.81.66 9.09t-.65 9.1q-.83 3.5-2.67 5.46-1.8 1.94-4.16 1.94-3.6 0-5.19-2.53H246v2.03h-7.957v-44h7.95V33.5h.25q1.58-2.53 5.19-2.53zm-1.58 8.47q-.56-.97-1.36-.97-.81 0-1.36.96-.56.94-.81 2.37-.31 1.69-.31 5.65 0 3.96.31 5.65.25 1.44.81 2.4.55.94 1.36.94t1.37-.94q.56-.97.81-2.4.31-1.69.31-5.65 0-3.97-.31-5.66-.25-1.43-.81-2.37zm34.22-.96q-2.57 0-4.13 1.65-.77.86-1.27 1.93-.47 1.03-.65 2.33-.18 1.28-.24 2.09-.03.77-.03 2.12v14.84h-7.96V31.48h7.96v3.406h.31q1.24-1.904 2.71-2.903 1.49-1 3.64-1 2.18 0 5.3.405v7.496q-3.29-.407-5.59-.407zm29.37 11.84h-2.11q-1.52 0-2.2.9-.65.87-.65 2.78 0 1.06.5 1.78.5.69 1.43.69 1.06 0 1.71-.54.69-.54.94-1.5.28-1 .34-1.69.07-.69.07-1.72v-.71zm-1-19.34q2.68 0 4.7.84 2.02.81 3.33 3.12.94 1.65.94 5.12v23.4h-7.96v-1.65h-.31q-1.74 2.15-4.41 2.15-3.29 0-5.74-2.85t-2.45-7.06q0-4.59 2.74-7.56 1-1.07 2.12-1.72 1.15-.69 2.33-.94 1.21-.25 1.93-.32.75-.07 1.77-.07h2.05V40.2q0-.62-.53-1.16-.52-.56-1.37-.56-2.86 0-8.05.6v-7.53q5.13-.6 8.95-.6zm28.75 32.49v-20.5h-7.65V35.5h15.6v27.99h-7.95zm-1.99-42.2q1.56-1.56 3.98-1.56t3.95 1.56q1.56 1.53 1.56 3.97 0 2.44-1.54 4-1.51 1.53-3.94 1.53-2.43 0-3.97-1.52-1.51-1.56-1.51-3.99t1.53-3.96zM377.83 31q3.324 0 5.375 3.345.75 1.24 1.12 2.87.4 1.61.434 2.71.06 1.05.06 3.023v20.53h-7.96V42.95q0-2.53-.47-3.405-.59-1.064-1.52-1.064t-1.52 1.07q-.47.88-.47 3.4v20.53h-7.95V31.49h7.95v1.936h.22q.87-1.124 2.15-1.78 1.27-.655 2.58-.655zM118.075 71.6l-1.49.17v1.09h1.494V79l-1.42.416v.917h4.73v-.917l-1.66-.418V72.82h2.14l.04-1.25h-2.19v-1.34c0-1.002.33-1.67 1.49-1.67.58 0 .99.084.99.084l.25 1.335h1.16v-2.09s-.91-.59-2.49-.59c-1.99 0-3.07 1.25-3.07 3.25v1zm8.42-.09l-2.74.09v.92l1.42.34V79l-1.41.416v.917h4.73v-.917l-1.66-.418V74.04c.365-.483 1.16-1.3 2.406-1.3l.25 1.25h1.08l.08-2.42s-.66-.25-1.49-.25c-1.12 0-2.09.918-2.5 1.386l-.15-1.22zm9.6-.17c-2.49 0-4.232 1.84-4.232 4.68 0 3.01 1.497 4.51 3.988 4.51 2.49 0 4.15-1.92 4.15-4.76 0-2.67-1.41-4.42-3.9-4.42zm-.083 1.33c1.66 0 2.24 1.34 2.24 3.17 0 2.17-.663 3.34-2.323 3.34s-2.33-1.25-2.33-3.25c0-2.17.75-3.25 2.41-3.25zm8.45-1.17l-2.738.09v.92l1.41.34V79l-1.41.416v.92h4.15v-.92l-1.08-.417v-4.92s.995-1.34 2.406-1.34c1.08 0 1.493.58 1.493 1.75V79l-1.08.416v.92h3.987v-.92l-1.246-.414V74.32c0-1.837-.83-3.006-2.655-3.006-1.38 0-2.69 1.002-3.09 1.352l-.15-1.185zm14.07.08h-2.406v-2.44l-1.66.34v2.1l-1.66.17v1.09h1.66v5.26c0 1.87.914 2.42 1.91 2.42.83 0 1.577-.28 2.324-.83l-.446-.88c-.433.24-.898.42-1.297.42-.466 0-.83-.25-.83-1.01v-5.36h2.405V71.6zm6.196 3.51H160.4v1.41h4.315v-1.42zm9.437 1.05s.085-.47.085-.89c0-2.5-1.08-3.92-3.487-3.92s-4.07 2-4.07 4.67c0 2.76 1.33 4.51 3.987 4.51 1.994 0 3.538-1.38 3.538-1.38l-.58-.87s-1.13.92-2.79.92c-1.428 0-2.407-1.17-2.407-3l5.73-.03zm-5.66-1.22c.1-1.25.847-2.28 2.175-2.28 1.33 0 1.81 1.04 1.81 2.29h-3.99zm10.267-3.42l-2.737.09v.92l1.41.33V79l-1.41.418v.918h4.15v-.918L179.09 79v-4.93s.998-1.335 2.41-1.335c1.08 0 1.494.584 1.494 1.753v4.506l-1.08.417v.92h3.986v-.92l-1.245-.42v-4.67c0-1.83-.83-3-2.655-3-1.38 0-2.69 1-3.09 1.35l-.143-1.18zm17.804 7.85L195.15 79V67.48l-3.073.085v.917l1.412.334v2.77c-.43-.15-.97-.265-1.58-.265-2.99 0-4.4 2.01-4.4 4.84 0 2.59 1.08 4.34 3.48 4.34 1.26 0 2.12-.63 2.61-1.11l.13.95 2.82-.08v-.91zm-3.07-1.42s-.75 1.25-2.16 1.25c-1.493 0-2.074-1.33-2.074-3.17 0-1.84.566-3.34 2.49-3.34 1.162 0 1.744.34 1.744.34v4.93zm17.89 1.42L209.97 79V67.48l-3.07.085v.917l1.41.334v2.77c-.43-.15-.963-.265-1.578-.265-2.99 0-4.4 2.01-4.4 4.84 0 2.59 1.077 4.34 3.484 4.34 1.263 0 2.128-.63 2.608-1.11l.135.95 2.82-.08v-.91zm-3.07-1.42s-.747 1.25-2.16 1.25c-1.493 0-2.074-1.33-2.074-3.17 0-1.84.566-3.34 2.49-3.34 1.163 0 1.744.34 1.744.34v4.93zm12.017-1.79s.08-.46.08-.88c0-2.5-1.08-3.92-3.485-3.92-2.407 0-4.07 2-4.07 4.68 0 2.76 1.33 4.51 3.987 4.51 1.993 0 3.54-1.38 3.54-1.38l-.58-.87s-1.133.92-2.793.92c-1.424 0-2.404-1.17-2.404-3l5.726-.03zm-5.66-1.22c.1-1.25.845-2.28 2.173-2.28s1.816 1.04 1.816 2.29h-3.985zm8.79 2.755h-1.16v2.47s1.093.367 2.62.367c1.993 0 3.653-.934 3.653-2.854 0-2.853-4.632-2.17-4.632-3.955 0-.85.63-1.115 1.48-1.115.83 0 1.344.2 1.344.2l.266 1.3h1.08l.05-2.253s-1.53-.5-2.84-.5c-1.71 0-3.04.868-3.04 2.604 0 3.03 4.63 2.2 4.63 4 0 1.03-.88 1.32-1.88 1.32-.896 0-1.394-.15-1.394-.15l-.183-1.44zm7.99-8.93c0 .75.414 1.17 1.08 1.17.496 0 1.08-.42 1.08-1.17 0-.834-.42-1.17-1.08-1.17-.583 0-1.08.416-1.08 1.167zm3.235 10.685l-1.25-.42V71.5l-3.07.08v.92l1.41.332V79l-1.41.417v.917h4.317v-.92zm10.28-6.922v-.918l-2.9.064s-.584-.317-1.66-.317c-2.16 0-3.655 1.085-3.655 3.255 0 2.004 1.275 2.588 1.275 2.588s-.86 1.334-.86 1.885c0 .863.995.95.995.95s-1.745.58-1.745 2.083c0 1.837 1.66 2.42 3.984 2.42 2.903 0 4.314-1.17 4.314-3.003 0-1.586-1.17-2.42-3.32-2.42h-2.58l.084-1.57s.495.15 1.242.15c2.16 0 3.655-1 3.655-3.254 0-1.08-.45-1.68-.45-1.68l1.61-.23zm-4.648 0c1.245 0 1.826.75 1.826 2.003 0 1.42-.58 2-1.91 2-1.246 0-1.827-.83-1.827-2 0-1.33.58-2 1.91-2zm.664 7.842c1.328 0 2.158.25 2.158 1.338s-.83 1.585-2.49 1.585c-1.576 0-2.572-.25-2.572-1.42 0-1 1.08-1.5 1.08-1.5h1.826zm8.206-8.85l-2.74.09v.92l1.413.333V79l-1.412.416v.917h4.15v-.92l-1.08-.417V74.07s1-1.336 2.41-1.336c1.08 0 1.5.584 1.5 1.753v4.506l-1.07.417v.917h3.98v-.918l-1.24-.42v-4.67c0-1.84-.83-3.01-2.65-3.01-1.38 0-2.69 1-3.09 1.35l-.15-1.19zm21.37 3.34l1.33-.33V73.5h-5.15c-1.16 0-2.15-.75-2.15-1.92 0-1 .67-1.668 1.99-1.668 1.17 0 1.83.25 1.83.25l.35 1.332h1.06l.08-2.336s-1.69-.67-3.15-.67c-2.35 0-3.86.94-3.86 3.01 0 1.987 1.96 2.505 1.96 2.505s-2.24 1.086-2.24 3.09c0 2.004 1.16 3.42 3.9 3.42 2.49 0 4.07-1.335 4.07-3.67v-2.01zm-1.66 0v2.09c0 1.42-.83 2.17-2.24 2.17-1.41 0-2.32-.67-2.32-2.08 0-1.25 1.08-2.17 2.33-2.17h2.24zm18.07 4.52l-1.44-.36V67.48l-3.07.083v.917l1.41.334v2.77c-.43-.15-.96-.265-1.57-.265-2.98 0-4.39 2-4.39 4.84 0 2.58 1.08 4.34 3.49 4.34 1.26 0 2.13-.64 2.61-1.12l.14.95 2.83-.08v-.92zm-3.08-1.42s-.74 1.26-2.15 1.26c-1.49 0-2.07-1.33-2.07-3.17 0-1.84.57-3.33 2.49-3.33 1.16 0 1.75.34 1.75.34v4.93zm12.01-1.79s.08-.46.08-.88c0-2.5-1.08-3.92-3.48-3.92-2.41 0-4.07 2.01-4.07 4.68 0 2.76 1.33 4.51 3.99 4.51 2 0 3.54-1.38 3.54-1.38l-.58-.87s-1.13.92-2.79.92c-1.42 0-2.4-1.17-2.4-3l5.73-.03zm-5.67-1.22c.1-1.25.85-2.28 2.18-2.28s1.81 1.04 1.81 2.29h-3.98zm9.26-2.25l1.17-.17V71.5l-3.73.087v.92l.83.25 2.72 7.595h1.83l2.82-7.675.92-.167V71.5l-3.72.086v.916l1.15.25-1.99 6.09-1.98-6.18zm14.72 3.47s.09-.46.09-.88c0-2.5-1.08-3.92-3.48-3.92s-4.06 2.01-4.06 4.68c0 2.75 1.33 4.51 3.99 4.51 1.99 0 3.54-1.38 3.54-1.38l-.58-.87s-1.13.92-2.79.92c-1.43 0-2.41-1.17-2.41-3l5.73-.03zm-5.66-1.22c.1-1.25.85-2.28 2.18-2.28s1.82 1.04 1.82 2.29h-3.98zm11.88 4.51l-1.5-.42V67.48l-3.1.085v.916l1.41.34V79l-1.41.416v.916h4.6v-.92zm5.36-8.1c-2.49 0-4.23 1.84-4.23 4.68 0 3.01 1.5 4.51 3.99 4.51s4.15-1.92 4.15-4.75c0-2.67-1.41-4.42-3.9-4.42zm-.09 1.33c1.66 0 2.24 1.34 2.24 3.17 0 2.17-.66 3.34-2.32 3.34-1.66 0-2.32-1.25-2.32-3.25 0-2.17.75-3.25 2.41-3.25zm8.28-1.17l-2.82.09v.92l1.41.34v10.09l-1.33.34v.92h4.73v-.92l-1.74-.33v-2.66c.45.14.95.24 1.5.24 3.07 0 4.48-2 4.48-4.84 0-2.58-1.16-4.34-3.57-4.34-1.14 0-2.02.64-2.52 1.1l-.13-.94zm.25 2.33s.58-1.16 2.08-1.16 2.16 1.34 2.16 3.17c0 1.84-.56 3.34-2.49 3.34-1.24 0-1.74-.33-1.74-.33v-5.01zm10.52-2.34l-2.74.09v.92l1.41.34V79l-1.41.416v.918h4.15v-.917L345.09 79v-4.93s.913-1.335 2.325-1.335c1.08 0 1.41.584 1.41 1.753v4.506l-1.077.417v.92h3.818v-.92l-1.08-.42v-4.92s.915-1.33 2.326-1.33c1.08 0 1.41.59 1.41 1.76V79l-1.08.416v.915h3.987v-.91l-1.25-.42v-4.67c0-1.84-.75-3.01-2.57-3.01-1.53 0-2.87 1.22-3.09 1.44-.39-.87-1.12-1.43-2.32-1.43-1.36 0-2.63.99-3.01 1.36l-.16-1.18zm21.4 4.64s.09-.46.09-.88c0-2.5-1.08-3.92-3.48-3.92s-4.07 2-4.07 4.68c0 2.76 1.33 4.51 3.99 4.51 1.99 0 3.54-1.38 3.54-1.38l-.58-.87s-1.13.92-2.79.92c-1.42 0-2.4-1.17-2.4-3l5.73-.03zm-5.67-1.22c.1-1.25.85-2.28 2.18-2.28s1.81 1.04 1.81 2.29h-3.98zm10.27-3.43l-2.73.09v.92l1.41.34V79l-1.41.416v.918h4.15v-.917l-1.08-.42V74.07s1-1.336 2.41-1.336c1.08 0 1.5.584 1.5 1.753v4.506l-1.08.42v.916h3.99v-.92l-1.24-.42v-4.67c0-1.84-.83-3.01-2.65-3.01-1.38 0-2.69 1-3.09 1.35l-.15-1.19zm14.07.085h-2.4v-2.437l-1.66.334v2.103l-1.66.167v1.084h1.66v5.258c0 1.87.92 2.42 1.91 2.42.83 0 1.58-.284 2.33-.834l-.45-.885c-.43.234-.89.417-1.29.417-.46 0-.83-.25-.83-1.018v-5.358h2.41v-1.25z"/>
</svg>
