<svg xmlns="http://www.w3.org/2000/svg" class="logo logo--two-brain-only" viewBox="0 0 100 100">
  <path fill="#d32f2f" d="M65.322 8.146v12.83l-6.82 6.82v8.694H60.3v-7.95l5.022-5.02v5.764h1.798v-11.78l6.682 6.678 1.27-1.27-7.952-7.95V8.145h-1.798zM63.31 44.96v14.665l-3.823 3.82-3.298-3.298-1.29 1.275 6.73 6.733h9.74v-1.802h-9l-1.63-1.633 8.02-8.02-1.27-1.275-2.41 2.4V44.957H63.3zm19.375 2.825v9.452l-4.863-4.863-1.273 1.272 6.14 6.136v5.49h1.81V47.786h-1.81zM80.398 69.47v7.415h1.8v-7.418h-1.8zm-17.046 6.54l-5.815 5.814.005.005h-4.428v1.8h9.166l2.322 2.31 1.27-1.28-2.85-2.84h-2.93l4.55-4.54-1.268-1.27z"/>
  <path fill="#404640" d="M28.17 56.656c.703-3.492 2.485-5.866 5.928-7.89 2.2-1.295 3.078-1.484 3.74-.818.58.587.748 1.768.345 2.433-.183.31-1.36 1.26-2.615 2.12-2.616 1.8-3.12 2.46-3.537 4.63-.48 2.54-1.18 3.11-2.95 2.46-1.06-.39-1.27-1.07-.9-2.91zm-5.597-30.82c-1.2-1.17-.64-2.404 1.54-3.396 3.32-1.51 5.97-3.784 7.057-6.052 1.188-2.475 2.137-3.016 3.482-1.98 2.803 2.155-3.326 10.418-8.713 11.744-1.82.445-2.68.367-3.37-.313zm1.063 18.003c-.31-.2-.88-.9-1.267-1.56-1.16-1.97-2.11-2.53-5.37-3.17-.93-.19-1.33-.42-1.51-.87-.38-.93-.19-2.06.43-2.58.47-.4.83-.41 2.67-.07 3.43.65 5.9 2.61 7.35 5.85.36.81.38 1.11.07 1.67-.47.83-1.62 1.18-2.36.71zm9.09 42.29c-.77-.4-1.21-1-1.228-1.68-.025-.97-1.28-4.22-2.197-5.7-1.24-2-3.49-4.18-5.04-4.87-.73-.33-2.13-.71-3.12-.85-2.2-.33-2.63-.55-2.97-1.47-.29-.85-.09-1.57.67-2.26.47-.42.81-.47 2.31-.35 5.04.39 9.49 3.52 12.21 8.57 1.87 3.47 2.63 7.29 1.65 8.16-.83.743-1.43.864-2.22.446zm10.608 8.11c.803-.23 1.544-.66 1.968-1.14l.68-.78.084-7.64c.046-4.2.054-22.93.016-41.62L46.015 9.1l-.635-1.246c-1.125-2.21-2.992-2.92-7.492-2.856-6.182.09-9.973 1.74-12.22 5.325-.932 1.475-1.526 1.868-3.62 2.376-2.982.72-6.384 2.79-7.734 4.68-2.713 3.81-3.86 7.47-3.172 10 .202.75.297 1.52.19 1.7-.11.18-.757.72-1.472 1.21-1.607 1.09-2.457 2.74-3.335 6.36-1.066 4.41-.742 10 .824 14 1.44 3.71 5.88 7.37 8.89 7.33 1.05-.02 2.33.48 2.62 1.01.82 1.5-.22 3.12-2.02 3.12-2.54 0-5.88-1.27-8.21-3.12-.84-.68-1.63-1.15-1.76-1.05-.4.24-1.48 4.24-1.76 6.49-.6 4.63 1.05 9.61 4.28 12.93 1.35 1.39 4.14 2.67 6.69 3.07 1.58.26 1.86.485 3.45 2.902 3.73 5.66 9.84 9.844 16.01 10.95 2.38.42 6 .38 7.72-.102zM55.64 4.96l-4.817 4.82v46.38c-1.096.662-1.84 1.85-1.84 3.2 0 1.363.74 2.55 1.835 3.213v27.673L55.568 95h26.567l6.763-6.763c.297.08.608.135.932.135 2.052 0 3.74-1.688 3.74-3.74 0-2.05-1.688-3.74-3.754-3.74-2.065 0-3.753 1.69-3.753 3.74 0 .338.054.635.135.945l-5.656 5.657h-4.28V75.71l13.122-13.122v7.452c-1.107.66-1.863 1.85-1.863 3.213 0 2.065 1.69 3.752 3.74 3.752 2.06 0 3.74-1.687 3.74-3.74 0-1.362-.74-2.54-1.84-3.198V39.975l-8.64-8.64 1.38-1.375V17.27l-5.28-5.28c.08-.31.14-.635.14-.973 0-2.054-1.69-3.742-3.74-3.742-.33 0-.66.055-.97.136L73.6 4.95H55.64zm1.565 3.78h14.862l1.364 1.365c-.06.29-.12.59-.12.904 0 2.06 1.69 3.75 3.76 3.75.31 0 .62-.05.91-.12l4.2 4.19v9.56l-6.56 6.55-.69.69c-.28-.068-.56-.116-.86-.116-2.05 0-3.74 1.686-3.74 3.752s1.69 3.752 3.76 3.752c2.06 0 3.74-1.69 3.74-3.74 0-.34-.06-.68-.15-1l.65-.65 3.63-3.62 7.54 7.55v16.96l-16.08 16v16.7H57.15l-2.543-2.543v-26.1c1.11-.653 1.87-1.848 1.87-3.218 0-1.38-.76-2.57-1.87-3.23V11.34l2.602-2.6zm19.844.48c.99 0 1.78.79 1.78 1.784 0 .996-.79 1.782-1.78 1.782s-1.79-.79-1.79-1.785c0-.99.79-1.78 1.78-1.78zm-3.03 28.26c1 0 1.78.787 1.78 1.78 0 .998-.79 1.78-1.78 1.78s-1.78-.782-1.78-1.78c0-.993.79-1.78 1.78-1.78zm-21.29 20.1c1 0 1.78.786 1.78 1.782 0 .995-.79 1.782-1.78 1.782s-1.78-.787-1.78-1.782c0-.996.79-1.782 1.79-1.782zM91.3 71.467c.994 0 1.78.787 1.78 1.782s-.786 1.78-1.78 1.78c-1 0-1.784-.79-1.784-1.79s.786-1.78 1.78-1.78zm-1.46 11.367c.996 0 1.785.787 1.785 1.782 0 .996-.79 1.782-1.782 1.782-1 0-1.785-.786-1.785-1.782 0-.995.788-1.782 1.783-1.782zm-8.51-6.376c-.56 0-1.12.212-1.54.634-.85.85-.85 2.24 0 3.092.847.846 2.24.846 3.088 0 .85-.85.85-2.24 0-3.092-.417-.422-.97-.634-1.54-.634zm0 1.138c.27 0 .53.103.74.308.41.41.41 1.06 0 1.47-.412.41-1.06.41-1.472 0-.41-.41-.41-1.06 0-1.47.206-.205.474-.308.737-.308zm-5.53-54.93c-1.2 0-2.18.987-2.18 2.188 0 1.197.99 2.183 2.186 2.183 1.2 0 2.183-.986 2.183-2.184 0-1.2-.99-2.184-2.19-2.184zm0 1.15c.58 0 1.04.457 1.04 1.038 0 .58-.46 1.04-1.04 1.04-.58 0-1.04-.46-1.04-1.04 0-.58.46-1.04 1.04-1.04zm-16.41 11.61c-1.2 0-2.183.984-2.183 2.183 0 1.2.986 2.18 2.184 2.18 1.21 0 2.19-.99 2.19-2.19s-.98-2.19-2.18-2.19zm0 1.144c.58 0 1.04.46 1.04 1.04 0 .58-.46 1.04-1.04 1.04-.58 0-1.04-.46-1.04-1.04 0-.58.46-1.04 1.04-1.04zm6.86-7.802c-1.2 0-2.184.986-2.184 2.184 0 1.2.986 2.183 2.184 2.183 1.2 0 2.185-.985 2.185-2.183 0-1.2-.986-2.184-2.185-2.184zm0 1.145c.58 0 1.04.46 1.04 1.04 0 .58-.46 1.04-1.04 1.04-.58 0-1.04-.46-1.04-1.04 0-.58.46-1.04 1.04-1.04zM64.185 41.69c-1.2 0-2.187.986-2.187 2.188 0 1.2.986 2.187 2.187 2.187 1.2 0 2.184-.986 2.184-2.187 0-1.202-.99-2.187-2.19-2.187zm0 1.148c.58 0 1.04.46 1.04 1.04 0 .58-.46 1.04-1.04 1.04-.58 0-1.04-.46-1.04-1.04 0-.58.46-1.04 1.04-1.04zm4.738 10.287c-1.2 0-2.187.985-2.187 2.187 0 1.2.986 2.187 2.187 2.187 1.2 0 2.184-.99 2.184-2.19s-.985-2.19-2.186-2.19zm0 1.147c.58 0 1.04.46 1.04 1.04 0 .58-.46 1.04-1.04 1.04-.58 0-1.04-.46-1.04-1.04 0-.58.46-1.04 1.04-1.04zm-2.477 30.104c-1.2 0-2.187.985-2.187 2.187 0 1.2.98 2.187 2.18 2.187 1.2 0 2.18-.986 2.18-2.174 0-1.2-.99-2.186-2.19-2.186zm0 1.147c.58 0 1.04.46 1.04 1.04 0 .58-.46 1.04-1.04 1.04-.58 0-1.04-.46-1.04-1.04 0-.58.46-1.04 1.04-1.04zM65.142 73.28c-1.188 0-2.173.985-2.173 2.186 0 1.202.98 2.187 2.18 2.187 1.2 0 2.18-.985 2.18-2.173 0-1.202-.99-2.187-2.19-2.187zm0 1.147c.58 0 1.04.46 1.04 1.04 0 .58-.46 1.04-1.04 1.04-.58 0-1.04-.46-1.04-1.04 0-.58.46-1.04 1.04-1.04zm8.032-9.355c-1.2 0-2.187.985-2.187 2.187 0 1.2.986 2.18 2.187 2.18 1.202 0 2.187-.99 2.187-2.19s-.98-2.19-2.18-2.19zm0 1.147c.58 0 1.04.45 1.04 1.04 0 .58-.46 1.03-1.04 1.03-.58 0-1.04-.46-1.04-1.04 0-.58.46-1.04 1.04-1.04zm10.45-22.12c-.555 0-1.122.21-1.54.64-.85.85-.85 2.24 0 3.09.85.85 2.24.85 3.09 0 .852-.85.852-2.24 0-3.09-.417-.42-.984-.64-1.538-.64zm0 1.14c.27 0 .54.11.74.31.42.42.42 1.07 0 1.47-.404.42-1.052.42-1.47 0-.405-.41-.405-1.06 0-1.47.216-.2.472-.31.742-.31zm-7.453 4.59c-.55 0-1.12.21-1.53.65-.85.84-.85 2.24 0 3.08.85.85 2.24.85 3.09 0 .85-.85.85-2.24 0-3.09-.42-.44-.98-.65-1.54-.65zm0 1.15c.27 0 .53.1.75.31.42.4.42 1.05 0 1.47-.4.4-1.05.4-1.47 0-.4-.42-.4-1.07 0-1.47.21-.22.48-.31.75-.31z"/>
</svg>
